<?xml version="1.0" encoding="UTF-8"?>
<svg xmlns="http://www.w3.org/2000/svg" xmlns:xlink="http://www.w3.org/1999/xlink" width="756pt" height="504pt" viewBox="0 0 756 504" version="1.1">
<g id="surface117">
<rect x="0" y="0" width="756" height="504" style="fill:rgb(100%,100%,100%);fill-opacity:1;stroke:none;"/>
<path style="fill-rule:nonzero;fill:rgb(0%,0%,0%);fill-opacity:0.501961;stroke-width:1.066978;stroke-linecap:square;stroke-linejoin:miter;stroke:rgb(100%,100%,100%);stroke-opacity:1;stroke-miterlimit:10;" d="M 23.234375 492.222656 L 46.496094 492.222656 L 46.496094 491.363281 L 23.234375 491.363281 Z M 23.234375 492.222656 "/>
<path style="fill-rule:nonzero;fill:rgb(0%,0%,0%);fill-opacity:0.501961;stroke-width:1.066978;stroke-linecap:square;stroke-linejoin:miter;stroke:rgb(100%,100%,100%);stroke-opacity:1;stroke-miterlimit:10;" d="M 46.496094 492.222656 L 69.757812 492.222656 L 69.757812 490.5 L 46.496094 490.5 Z M 46.496094 492.222656 "/>
<path style="fill-rule:nonzero;fill:rgb(0%,0%,0%);fill-opacity:0.501961;stroke-width:1.066978;stroke-linecap:square;stroke-linejoin:miter;stroke:rgb(100%,100%,100%);stroke-opacity:1;stroke-miterlimit:10;" d="M 69.757812 492.222656 L 93.019531 492.222656 L 93.019531 491.363281 L 69.757812 491.363281 Z M 69.757812 492.222656 "/>
<path style="fill-rule:nonzero;fill:rgb(0%,0%,0%);fill-opacity:0.501961;stroke-width:1.066978;stroke-linecap:square;stroke-linejoin:miter;stroke:rgb(100%,100%,100%);stroke-opacity:1;stroke-miterlimit:10;" d="M 93.019531 492.222656 L 116.28125 492.222656 L 116.28125 488.777344 L 93.019531 488.777344 Z M 93.019531 492.222656 "/>
<path style="fill-rule:nonzero;fill:rgb(0%,0%,0%);fill-opacity:0.501961;stroke-width:1.066978;stroke-linecap:square;stroke-linejoin:miter;stroke:rgb(100%,100%,100%);stroke-opacity:1;stroke-miterlimit:10;" d="M 116.28125 492.222656 L 139.542969 492.222656 L 139.542969 483.183594 L 116.28125 483.183594 Z M 116.28125 492.222656 "/>
<path style="fill-rule:nonzero;fill:rgb(0%,0%,0%);fill-opacity:0.501961;stroke-width:1.066978;stroke-linecap:square;stroke-linejoin:miter;stroke:rgb(100%,100%,100%);stroke-opacity:1;stroke-miterlimit:10;" d="M 139.546875 492.222656 L 162.808594 492.222656 L 162.808594 479.738281 L 139.546875 479.738281 Z M 139.546875 492.222656 "/>
<path style="fill-rule:nonzero;fill:rgb(0%,0%,0%);fill-opacity:0.501961;stroke-width:1.066978;stroke-linecap:square;stroke-linejoin:miter;stroke:rgb(100%,100%,100%);stroke-opacity:1;stroke-miterlimit:10;" d="M 162.808594 492.222656 L 186.070312 492.222656 L 186.070312 468.546875 L 162.808594 468.546875 Z M 162.808594 492.222656 "/>
<path style="fill-rule:nonzero;fill:rgb(0%,0%,0%);fill-opacity:0.501961;stroke-width:1.066978;stroke-linecap:square;stroke-linejoin:miter;stroke:rgb(100%,100%,100%);stroke-opacity:1;stroke-miterlimit:10;" d="M 186.070312 492.222656 L 209.332031 492.222656 L 209.332031 449.605469 L 186.070312 449.605469 Z M 186.070312 492.222656 "/>
<path style="fill-rule:nonzero;fill:rgb(0%,0%,0%);fill-opacity:0.501961;stroke-width:1.066978;stroke-linecap:square;stroke-linejoin:miter;stroke:rgb(100%,100%,100%);stroke-opacity:1;stroke-miterlimit:10;" d="M 209.332031 492.222656 L 232.59375 492.222656 L 232.59375 421.195312 L 209.332031 421.195312 Z M 209.332031 492.222656 "/>
<path style="fill-rule:nonzero;fill:rgb(0%,0%,0%);fill-opacity:0.501961;stroke-width:1.066978;stroke-linecap:square;stroke-linejoin:miter;stroke:rgb(100%,100%,100%);stroke-opacity:1;stroke-miterlimit:10;" d="M 232.59375 492.222656 L 255.855469 492.222656 L 255.855469 358.777344 L 232.59375 358.777344 Z M 232.59375 492.222656 "/>
<path style="fill-rule:nonzero;fill:rgb(0%,0%,0%);fill-opacity:0.501961;stroke-width:1.066978;stroke-linecap:square;stroke-linejoin:miter;stroke:rgb(100%,100%,100%);stroke-opacity:1;stroke-miterlimit:10;" d="M 255.859375 492.222656 L 279.121094 492.222656 L 279.121094 309.703125 L 255.859375 309.703125 Z M 255.859375 492.222656 "/>
<path style="fill-rule:nonzero;fill:rgb(0%,0%,0%);fill-opacity:0.501961;stroke-width:1.066978;stroke-linecap:square;stroke-linejoin:miter;stroke:rgb(100%,100%,100%);stroke-opacity:1;stroke-miterlimit:10;" d="M 279.121094 492.222656 L 302.382812 492.222656 L 302.382812 251.589844 L 279.121094 251.589844 Z M 279.121094 492.222656 "/>
<path style="fill-rule:nonzero;fill:rgb(0%,0%,0%);fill-opacity:0.501961;stroke-width:1.066978;stroke-linecap:square;stroke-linejoin:miter;stroke:rgb(100%,100%,100%);stroke-opacity:1;stroke-miterlimit:10;" d="M 302.382812 492.222656 L 325.644531 492.222656 L 325.644531 161.191406 L 302.382812 161.191406 Z M 302.382812 492.222656 "/>
<path style="fill-rule:nonzero;fill:rgb(0%,0%,0%);fill-opacity:0.501961;stroke-width:1.066978;stroke-linecap:square;stroke-linejoin:miter;stroke:rgb(100%,100%,100%);stroke-opacity:1;stroke-miterlimit:10;" d="M 325.644531 492.222656 L 348.90625 492.222656 L 348.90625 78.109375 L 325.644531 78.109375 Z M 325.644531 492.222656 "/>
<path style="fill-rule:nonzero;fill:rgb(0%,0%,0%);fill-opacity:0.501961;stroke-width:1.066978;stroke-linecap:square;stroke-linejoin:miter;stroke:rgb(100%,100%,100%);stroke-opacity:1;stroke-miterlimit:10;" d="M 348.90625 492.222656 L 372.167969 492.222656 L 372.167969 23.441406 L 348.90625 23.441406 Z M 348.90625 492.222656 "/>
<path style="fill-rule:nonzero;fill:rgb(0%,0%,0%);fill-opacity:0.501961;stroke-width:1.066978;stroke-linecap:square;stroke-linejoin:miter;stroke:rgb(100%,100%,100%);stroke-opacity:1;stroke-miterlimit:10;" d="M 372.167969 492.222656 L 395.429688 492.222656 L 395.429688 51.851562 L 372.167969 51.851562 Z M 372.167969 492.222656 "/>
<path style="fill-rule:nonzero;fill:rgb(0%,0%,0%);fill-opacity:0.501961;stroke-width:1.066978;stroke-linecap:square;stroke-linejoin:miter;stroke:rgb(100%,100%,100%);stroke-opacity:1;stroke-miterlimit:10;" d="M 395.433594 492.222656 L 418.695312 492.222656 L 418.695312 42.8125 L 395.433594 42.8125 Z M 395.433594 492.222656 "/>
<path style="fill-rule:nonzero;fill:rgb(0%,0%,0%);fill-opacity:0.501961;stroke-width:1.066978;stroke-linecap:square;stroke-linejoin:miter;stroke:rgb(100%,100%,100%);stroke-opacity:1;stroke-miterlimit:10;" d="M 418.695312 492.222656 L 441.957031 492.222656 L 441.957031 54.003906 L 418.695312 54.003906 Z M 418.695312 492.222656 "/>
<path style="fill-rule:nonzero;fill:rgb(0%,0%,0%);fill-opacity:0.501961;stroke-width:1.066978;stroke-linecap:square;stroke-linejoin:miter;stroke:rgb(100%,100%,100%);stroke-opacity:1;stroke-miterlimit:10;" d="M 441.957031 492.222656 L 465.21875 492.222656 L 465.21875 158.179688 L 441.957031 158.179688 Z M 441.957031 492.222656 "/>
<path style="fill-rule:nonzero;fill:rgb(0%,0%,0%);fill-opacity:0.501961;stroke-width:1.066978;stroke-linecap:square;stroke-linejoin:miter;stroke:rgb(100%,100%,100%);stroke-opacity:1;stroke-miterlimit:10;" d="M 465.21875 492.222656 L 488.480469 492.222656 L 488.480469 249.4375 L 465.21875 249.4375 Z M 465.21875 492.222656 "/>
<path style="fill-rule:nonzero;fill:rgb(0%,0%,0%);fill-opacity:0.501961;stroke-width:1.066978;stroke-linecap:square;stroke-linejoin:miter;stroke:rgb(100%,100%,100%);stroke-opacity:1;stroke-miterlimit:10;" d="M 488.480469 492.222656 L 511.742188 492.222656 L 511.742188 314.4375 L 488.480469 314.4375 Z M 488.480469 492.222656 "/>
<path style="fill-rule:nonzero;fill:rgb(0%,0%,0%);fill-opacity:0.501961;stroke-width:1.066978;stroke-linecap:square;stroke-linejoin:miter;stroke:rgb(100%,100%,100%);stroke-opacity:1;stroke-miterlimit:10;" d="M 511.746094 492.222656 L 535.007812 492.222656 L 535.007812 369.96875 L 511.746094 369.96875 Z M 511.746094 492.222656 "/>
<path style="fill-rule:nonzero;fill:rgb(0%,0%,0%);fill-opacity:0.501961;stroke-width:1.066978;stroke-linecap:square;stroke-linejoin:miter;stroke:rgb(100%,100%,100%);stroke-opacity:1;stroke-miterlimit:10;" d="M 535.007812 492.222656 L 558.269531 492.222656 L 558.269531 417.75 L 535.007812 417.75 Z M 535.007812 492.222656 "/>
<path style="fill-rule:nonzero;fill:rgb(0%,0%,0%);fill-opacity:0.501961;stroke-width:1.066978;stroke-linecap:square;stroke-linejoin:miter;stroke:rgb(100%,100%,100%);stroke-opacity:1;stroke-miterlimit:10;" d="M 558.269531 492.222656 L 581.53125 492.222656 L 581.53125 450.035156 L 558.269531 450.035156 Z M 558.269531 492.222656 "/>
<path style="fill-rule:nonzero;fill:rgb(0%,0%,0%);fill-opacity:0.501961;stroke-width:1.066978;stroke-linecap:square;stroke-linejoin:miter;stroke:rgb(100%,100%,100%);stroke-opacity:1;stroke-miterlimit:10;" d="M 581.53125 492.222656 L 604.792969 492.222656 L 604.792969 472.421875 L 581.53125 472.421875 Z M 581.53125 492.222656 "/>
<path style="fill-rule:nonzero;fill:rgb(0%,0%,0%);fill-opacity:0.501961;stroke-width:1.066978;stroke-linecap:square;stroke-linejoin:miter;stroke:rgb(100%,100%,100%);stroke-opacity:1;stroke-miterlimit:10;" d="M 604.792969 492.222656 L 628.054688 492.222656 L 628.054688 477.15625 L 604.792969 477.15625 Z M 604.792969 492.222656 "/>
<path style="fill-rule:nonzero;fill:rgb(0%,0%,0%);fill-opacity:0.501961;stroke-width:1.066978;stroke-linecap:square;stroke-linejoin:miter;stroke:rgb(100%,100%,100%);stroke-opacity:1;stroke-miterlimit:10;" d="M 628.054688 492.222656 L 651.316406 492.222656 L 651.316406 485.335938 L 628.054688 485.335938 Z M 628.054688 492.222656 "/>
<path style="fill-rule:nonzero;fill:rgb(0%,0%,0%);fill-opacity:0.501961;stroke-width:1.066978;stroke-linecap:square;stroke-linejoin:miter;stroke:rgb(100%,100%,100%);stroke-opacity:1;stroke-miterlimit:10;" d="M 651.320312 492.222656 L 674.582031 492.222656 L 674.582031 488.777344 L 651.320312 488.777344 Z M 651.320312 492.222656 "/>
<path style="fill-rule:nonzero;fill:rgb(0%,0%,0%);fill-opacity:0.501961;stroke-width:1.066978;stroke-linecap:square;stroke-linejoin:miter;stroke:rgb(100%,100%,100%);stroke-opacity:1;stroke-miterlimit:10;" d="M 674.582031 492.222656 L 697.84375 492.222656 L 697.84375 490.929688 L 674.582031 490.929688 Z M 674.582031 492.222656 "/>
<path style="fill-rule:nonzero;fill:rgb(0%,0%,0%);fill-opacity:0.501961;stroke-width:1.066978;stroke-linecap:square;stroke-linejoin:miter;stroke:rgb(100%,100%,100%);stroke-opacity:1;stroke-miterlimit:10;" d="M 697.84375 492.222656 L 721.105469 492.222656 L 721.105469 491.792969 L 697.84375 491.792969 Z M 697.84375 492.222656 "/>
<path style="fill:none;stroke-width:4.267913;stroke-linecap:butt;stroke-linejoin:round;stroke:rgb(90.196078%,25.490196%,45.098039%);stroke-opacity:1;stroke-miterlimit:10;" d="M 382.074219 504 L 382.074219 0 "/>
</g>
</svg>
