<?xml version="1.0" encoding="UTF-8"?>
<svg xmlns="http://www.w3.org/2000/svg" xmlns:xlink="http://www.w3.org/1999/xlink" width="756pt" height="504pt" viewBox="0 0 756 504" version="1.1">
<g id="surface67">
<rect x="0" y="0" width="756" height="504" style="fill:rgb(100%,100%,100%);fill-opacity:1;stroke:none;"/>
<path style="fill:none;stroke-width:0.708661;stroke-linecap:round;stroke-linejoin:round;stroke:rgb(18.431373%,30.980392%,30.980392%);stroke-opacity:1;stroke-miterlimit:10;" d="M 34.257812 260.214844 C 34.257812 266.304688 29.320312 271.238281 23.234375 271.238281 C 17.144531 271.238281 12.210938 266.304688 12.210938 260.214844 C 12.210938 254.128906 17.144531 249.191406 23.234375 249.191406 C 29.320312 249.191406 34.257812 254.128906 34.257812 260.214844 "/>
<path style="fill:none;stroke-width:0.708661;stroke-linecap:round;stroke-linejoin:round;stroke:rgb(18.431373%,30.980392%,30.980392%);stroke-opacity:1;stroke-miterlimit:10;" d="M 41.308594 379.199219 C 41.308594 385.285156 36.371094 390.222656 30.28125 390.222656 C 24.195312 390.222656 19.257812 385.285156 19.257812 379.199219 C 19.257812 373.109375 24.195312 368.175781 30.28125 368.175781 C 36.371094 368.175781 41.308594 373.109375 41.308594 379.199219 "/>
<path style="fill-rule:nonzero;fill:rgb(18.431373%,30.980392%,30.980392%);fill-opacity:1;stroke-width:0.708661;stroke-linecap:round;stroke-linejoin:round;stroke:rgb(18.431373%,30.980392%,30.980392%);stroke-opacity:1;stroke-miterlimit:10;" d="M 48.355469 207.921875 C 48.355469 214.011719 43.421875 218.949219 37.332031 218.949219 C 31.242188 218.949219 26.308594 214.011719 26.308594 207.921875 C 26.308594 201.835938 31.242188 196.898438 37.332031 196.898438 C 43.421875 196.898438 48.355469 201.835938 48.355469 207.921875 "/>
<path style="fill:none;stroke-width:0.708661;stroke-linecap:round;stroke-linejoin:round;stroke:rgb(18.431373%,30.980392%,30.980392%);stroke-opacity:1;stroke-miterlimit:10;" d="M 55.40625 245.386719 C 55.40625 251.476562 50.46875 256.410156 44.382812 256.410156 C 38.292969 256.410156 33.355469 251.476562 33.355469 245.386719 C 33.355469 239.296875 38.292969 234.363281 44.382812 234.363281 C 50.46875 234.363281 55.40625 239.296875 55.40625 245.386719 "/>
<path style="fill:none;stroke-width:0.708661;stroke-linecap:round;stroke-linejoin:round;stroke:rgb(18.431373%,30.980392%,30.980392%);stroke-opacity:1;stroke-miterlimit:10;" d="M 62.453125 300.574219 C 62.453125 306.660156 57.519531 311.597656 51.429688 311.597656 C 45.34375 311.597656 40.40625 306.660156 40.40625 300.574219 C 40.40625 294.484375 45.34375 289.550781 51.429688 289.550781 C 57.519531 289.550781 62.453125 294.484375 62.453125 300.574219 "/>
<path style="fill:none;stroke-width:0.708661;stroke-linecap:round;stroke-linejoin:round;stroke:rgb(18.431373%,30.980392%,30.980392%);stroke-opacity:1;stroke-miterlimit:10;" d="M 69.503906 241.769531 C 69.503906 247.859375 64.566406 252.796875 58.480469 252.796875 C 52.390625 252.796875 47.457031 247.859375 47.457031 241.769531 C 47.457031 235.683594 52.390625 230.746094 58.480469 230.746094 C 64.566406 230.746094 69.503906 235.683594 69.503906 241.769531 "/>
<path style="fill:none;stroke-width:0.708661;stroke-linecap:round;stroke-linejoin:round;stroke:rgb(18.431373%,30.980392%,30.980392%);stroke-opacity:1;stroke-miterlimit:10;" d="M 76.554688 246.195312 C 76.554688 252.285156 71.617188 257.222656 65.527344 257.222656 C 59.441406 257.222656 54.503906 252.285156 54.503906 246.195312 C 54.503906 240.109375 59.441406 235.171875 65.527344 235.171875 C 71.617188 235.171875 76.554688 240.109375 76.554688 246.195312 "/>
<path style="fill:none;stroke-width:0.708661;stroke-linecap:round;stroke-linejoin:round;stroke:rgb(18.431373%,30.980392%,30.980392%);stroke-opacity:1;stroke-miterlimit:10;" d="M 83.601562 322.070312 C 83.601562 328.160156 78.667969 333.09375 72.578125 333.09375 C 66.488281 333.09375 61.554688 328.160156 61.554688 322.070312 C 61.554688 315.980469 66.488281 311.046875 72.578125 311.046875 C 78.667969 311.046875 83.601562 315.980469 83.601562 322.070312 "/>
<path style="fill-rule:nonzero;fill:rgb(18.431373%,30.980392%,30.980392%);fill-opacity:1;stroke-width:0.708661;stroke-linecap:round;stroke-linejoin:round;stroke:rgb(18.431373%,30.980392%,30.980392%);stroke-opacity:1;stroke-miterlimit:10;" d="M 90.652344 187.277344 C 90.652344 193.367188 85.714844 198.304688 79.628906 198.304688 C 73.539062 198.304688 68.601562 193.367188 68.601562 187.277344 C 68.601562 181.191406 73.539062 176.253906 79.628906 176.253906 C 85.714844 176.253906 90.652344 181.191406 90.652344 187.277344 "/>
<path style="fill-rule:nonzero;fill:rgb(18.431373%,30.980392%,30.980392%);fill-opacity:1;stroke-width:0.708661;stroke-linecap:round;stroke-linejoin:round;stroke:rgb(18.431373%,30.980392%,30.980392%);stroke-opacity:1;stroke-miterlimit:10;" d="M 97.699219 121.296875 C 97.699219 127.386719 92.765625 132.324219 86.675781 132.324219 C 80.589844 132.324219 75.652344 127.386719 75.652344 121.296875 C 75.652344 115.210938 80.589844 110.273438 86.675781 110.273438 C 92.765625 110.273438 97.699219 115.210938 97.699219 121.296875 "/>
<path style="fill:none;stroke-width:0.708661;stroke-linecap:round;stroke-linejoin:round;stroke:rgb(18.431373%,30.980392%,30.980392%);stroke-opacity:1;stroke-miterlimit:10;" d="M 104.75 309.796875 C 104.75 315.882812 99.8125 320.820312 93.726562 320.820312 C 87.636719 320.820312 82.703125 315.882812 82.703125 309.796875 C 82.703125 303.707031 87.636719 298.769531 93.726562 298.769531 C 99.8125 298.769531 104.75 303.707031 104.75 309.796875 "/>
<path style="fill:none;stroke-width:0.708661;stroke-linecap:round;stroke-linejoin:round;stroke:rgb(18.431373%,30.980392%,30.980392%);stroke-opacity:1;stroke-miterlimit:10;" d="M 111.800781 339.375 C 111.800781 345.464844 106.863281 350.398438 100.773438 350.398438 C 94.6875 350.398438 89.75 345.464844 89.75 339.375 C 89.75 333.285156 94.6875 328.351562 100.773438 328.351562 C 106.863281 328.351562 111.800781 333.285156 111.800781 339.375 "/>
<path style="fill:none;stroke-width:0.708661;stroke-linecap:round;stroke-linejoin:round;stroke:rgb(18.431373%,30.980392%,30.980392%);stroke-opacity:1;stroke-miterlimit:10;" d="M 118.847656 241.433594 C 118.847656 247.523438 113.914062 252.460938 107.824219 252.460938 C 101.734375 252.460938 96.800781 247.523438 96.800781 241.433594 C 96.800781 235.347656 101.734375 230.410156 107.824219 230.410156 C 113.914062 230.410156 118.847656 235.347656 118.847656 241.433594 "/>
<path style="fill:none;stroke-width:0.708661;stroke-linecap:round;stroke-linejoin:round;stroke:rgb(18.431373%,30.980392%,30.980392%);stroke-opacity:1;stroke-miterlimit:10;" d="M 125.898438 304.050781 C 125.898438 310.136719 120.960938 315.074219 114.875 315.074219 C 108.785156 315.074219 103.847656 310.136719 103.847656 304.050781 C 103.847656 297.960938 108.785156 293.027344 114.875 293.027344 C 120.960938 293.027344 125.898438 297.960938 125.898438 304.050781 "/>
<path style="fill-rule:nonzero;fill:rgb(18.431373%,30.980392%,30.980392%);fill-opacity:1;stroke-width:0.708661;stroke-linecap:round;stroke-linejoin:round;stroke:rgb(18.431373%,30.980392%,30.980392%);stroke-opacity:1;stroke-miterlimit:10;" d="M 132.945312 114.027344 C 132.945312 120.113281 128.011719 125.050781 121.921875 125.050781 C 115.835938 125.050781 110.898438 120.113281 110.898438 114.027344 C 110.898438 107.9375 115.835938 103.003906 121.921875 103.003906 C 128.011719 103.003906 132.945312 107.9375 132.945312 114.027344 "/>
<path style="fill:none;stroke-width:0.708661;stroke-linecap:round;stroke-linejoin:round;stroke:rgb(18.431373%,30.980392%,30.980392%);stroke-opacity:1;stroke-miterlimit:10;" d="M 139.996094 311.527344 C 139.996094 317.617188 135.058594 322.550781 128.972656 322.550781 C 122.882812 322.550781 117.949219 317.617188 117.949219 311.527344 C 117.949219 305.4375 122.882812 300.503906 128.972656 300.503906 C 135.058594 300.503906 139.996094 305.4375 139.996094 311.527344 "/>
<path style="fill-rule:nonzero;fill:rgb(18.431373%,30.980392%,30.980392%);fill-opacity:1;stroke-width:0.708661;stroke-linecap:round;stroke-linejoin:round;stroke:rgb(18.431373%,30.980392%,30.980392%);stroke-opacity:1;stroke-miterlimit:10;" d="M 147.046875 195.902344 C 147.046875 201.992188 142.109375 206.925781 136.019531 206.925781 C 129.933594 206.925781 124.996094 201.992188 124.996094 195.902344 C 124.996094 189.8125 129.933594 184.878906 136.019531 184.878906 C 142.109375 184.878906 147.046875 189.8125 147.046875 195.902344 "/>
<path style="fill-rule:nonzero;fill:rgb(18.431373%,30.980392%,30.980392%);fill-opacity:1;stroke-width:0.708661;stroke-linecap:round;stroke-linejoin:round;stroke:rgb(18.431373%,30.980392%,30.980392%);stroke-opacity:1;stroke-miterlimit:10;" d="M 154.09375 130.769531 C 154.09375 136.859375 149.160156 141.792969 143.070312 141.792969 C 136.980469 141.792969 132.046875 136.859375 132.046875 130.769531 C 132.046875 124.683594 136.980469 119.746094 143.070312 119.746094 C 149.160156 119.746094 154.09375 124.683594 154.09375 130.769531 "/>
<path style="fill-rule:nonzero;fill:rgb(18.431373%,30.980392%,30.980392%);fill-opacity:1;stroke-width:0.708661;stroke-linecap:round;stroke-linejoin:round;stroke:rgb(18.431373%,30.980392%,30.980392%);stroke-opacity:1;stroke-miterlimit:10;" d="M 161.144531 23.4375 C 161.144531 29.527344 156.207031 34.464844 150.121094 34.464844 C 144.03125 34.464844 139.09375 29.527344 139.09375 23.4375 C 139.09375 17.351562 144.03125 12.414062 150.121094 12.414062 C 156.207031 12.414062 161.144531 17.351562 161.144531 23.4375 "/>
<path style="fill:none;stroke-width:0.708661;stroke-linecap:round;stroke-linejoin:round;stroke:rgb(18.431373%,30.980392%,30.980392%);stroke-opacity:1;stroke-miterlimit:10;" d="M 168.191406 226.273438 C 168.191406 232.359375 163.257812 237.296875 157.167969 237.296875 C 151.082031 237.296875 146.144531 232.359375 146.144531 226.273438 C 146.144531 220.183594 151.082031 215.25 157.167969 215.25 C 163.257812 215.25 168.191406 220.183594 168.191406 226.273438 "/>
<path style="fill-rule:nonzero;fill:rgb(18.431373%,30.980392%,30.980392%);fill-opacity:1;stroke-width:0.708661;stroke-linecap:round;stroke-linejoin:round;stroke:rgb(18.431373%,30.980392%,30.980392%);stroke-opacity:1;stroke-miterlimit:10;" d="M 175.242188 99.316406 C 175.242188 105.40625 170.304688 110.339844 164.21875 110.339844 C 158.128906 110.339844 153.195312 105.40625 153.195312 99.316406 C 153.195312 93.226562 158.128906 88.292969 164.21875 88.292969 C 170.304688 88.292969 175.242188 93.226562 175.242188 99.316406 "/>
<path style="fill-rule:nonzero;fill:rgb(18.431373%,30.980392%,30.980392%);fill-opacity:1;stroke-width:0.708661;stroke-linecap:round;stroke-linejoin:round;stroke:rgb(18.431373%,30.980392%,30.980392%);stroke-opacity:1;stroke-miterlimit:10;" d="M 182.292969 209.886719 C 182.292969 215.976562 177.355469 220.914062 171.265625 220.914062 C 165.179688 220.914062 160.242188 215.976562 160.242188 209.886719 C 160.242188 203.800781 165.179688 198.863281 171.265625 198.863281 C 177.355469 198.863281 182.292969 203.800781 182.292969 209.886719 "/>
<path style="fill:none;stroke-width:0.708661;stroke-linecap:round;stroke-linejoin:round;stroke:rgb(18.431373%,30.980392%,30.980392%);stroke-opacity:1;stroke-miterlimit:10;" d="M 189.339844 249.730469 C 189.339844 255.820312 184.40625 260.753906 178.316406 260.753906 C 172.226562 260.753906 167.292969 255.820312 167.292969 249.730469 C 167.292969 243.640625 172.226562 238.707031 178.316406 238.707031 C 184.40625 238.707031 189.339844 243.640625 189.339844 249.730469 "/>
<path style="fill:none;stroke-width:0.708661;stroke-linecap:round;stroke-linejoin:round;stroke:rgb(18.431373%,30.980392%,30.980392%);stroke-opacity:1;stroke-miterlimit:10;" d="M 196.390625 226.140625 C 196.390625 232.226562 191.453125 237.164062 185.367188 237.164062 C 179.277344 237.164062 174.339844 232.226562 174.339844 226.140625 C 174.339844 220.050781 179.277344 215.113281 185.367188 215.113281 C 191.453125 215.113281 196.390625 220.050781 196.390625 226.140625 "/>
<path style="fill-rule:nonzero;fill:rgb(18.431373%,30.980392%,30.980392%);fill-opacity:1;stroke-width:0.708661;stroke-linecap:round;stroke-linejoin:round;stroke:rgb(18.431373%,30.980392%,30.980392%);stroke-opacity:1;stroke-miterlimit:10;" d="M 203.4375 129.160156 C 203.4375 135.25 198.503906 140.183594 192.414062 140.183594 C 186.328125 140.183594 181.390625 135.25 181.390625 129.160156 C 181.390625 123.070312 186.328125 118.136719 192.414062 118.136719 C 198.503906 118.136719 203.4375 123.070312 203.4375 129.160156 "/>
<path style="fill:none;stroke-width:0.708661;stroke-linecap:round;stroke-linejoin:round;stroke:rgb(18.431373%,30.980392%,30.980392%);stroke-opacity:1;stroke-miterlimit:10;" d="M 210.488281 237.773438 C 210.488281 243.859375 205.550781 248.796875 199.464844 248.796875 C 193.375 248.796875 188.441406 243.859375 188.441406 237.773438 C 188.441406 231.683594 193.375 226.746094 199.464844 226.746094 C 205.550781 226.746094 210.488281 231.683594 210.488281 237.773438 "/>
<path style="fill:none;stroke-width:0.708661;stroke-linecap:round;stroke-linejoin:round;stroke:rgb(18.431373%,30.980392%,30.980392%);stroke-opacity:1;stroke-miterlimit:10;" d="M 217.539062 269.929688 C 217.539062 276.015625 212.601562 280.953125 206.511719 280.953125 C 200.425781 280.953125 195.488281 276.015625 195.488281 269.929688 C 195.488281 263.839844 200.425781 258.902344 206.511719 258.902344 C 212.601562 258.902344 217.539062 263.839844 217.539062 269.929688 "/>
<path style="fill:none;stroke-width:0.708661;stroke-linecap:round;stroke-linejoin:round;stroke:rgb(18.431373%,30.980392%,30.980392%);stroke-opacity:1;stroke-miterlimit:10;" d="M 224.585938 333.136719 C 224.585938 339.226562 219.652344 344.160156 213.5625 344.160156 C 207.472656 344.160156 202.539062 339.226562 202.539062 333.136719 C 202.539062 327.050781 207.472656 322.113281 213.5625 322.113281 C 219.652344 322.113281 224.585938 327.050781 224.585938 333.136719 "/>
<path style="fill:none;stroke-width:0.708661;stroke-linecap:round;stroke-linejoin:round;stroke:rgb(18.431373%,30.980392%,30.980392%);stroke-opacity:1;stroke-miterlimit:10;" d="M 231.636719 425.859375 C 231.636719 431.949219 226.699219 436.882812 220.613281 436.882812 C 214.523438 436.882812 209.585938 431.949219 209.585938 425.859375 C 209.585938 419.769531 214.523438 414.835938 220.613281 414.835938 C 226.699219 414.835938 231.636719 419.769531 231.636719 425.859375 "/>
<path style="fill-rule:nonzero;fill:rgb(18.431373%,30.980392%,30.980392%);fill-opacity:1;stroke-width:0.708661;stroke-linecap:round;stroke-linejoin:round;stroke:rgb(18.431373%,30.980392%,30.980392%);stroke-opacity:1;stroke-miterlimit:10;" d="M 238.683594 146.996094 C 238.683594 153.082031 233.75 158.019531 227.660156 158.019531 C 221.574219 158.019531 216.636719 153.082031 216.636719 146.996094 C 216.636719 140.90625 221.574219 135.96875 227.660156 135.96875 C 233.75 135.96875 238.683594 140.90625 238.683594 146.996094 "/>
<path style="fill:none;stroke-width:0.708661;stroke-linecap:round;stroke-linejoin:round;stroke:rgb(18.431373%,30.980392%,30.980392%);stroke-opacity:1;stroke-miterlimit:10;" d="M 245.734375 316.960938 C 245.734375 323.050781 240.796875 327.984375 234.710938 327.984375 C 228.621094 327.984375 223.6875 323.050781 223.6875 316.960938 C 223.6875 310.871094 228.621094 305.9375 234.710938 305.9375 C 240.796875 305.9375 245.734375 310.871094 245.734375 316.960938 "/>
<path style="fill-rule:nonzero;fill:rgb(18.431373%,30.980392%,30.980392%);fill-opacity:1;stroke-width:0.708661;stroke-linecap:round;stroke-linejoin:round;stroke:rgb(18.431373%,30.980392%,30.980392%);stroke-opacity:1;stroke-miterlimit:10;" d="M 252.785156 217.164062 C 252.785156 223.253906 247.847656 228.1875 241.757812 228.1875 C 235.671875 228.1875 230.734375 223.253906 230.734375 217.164062 C 230.734375 211.074219 235.671875 206.140625 241.757812 206.140625 C 247.847656 206.140625 252.785156 211.074219 252.785156 217.164062 "/>
<path style="fill-rule:nonzero;fill:rgb(18.431373%,30.980392%,30.980392%);fill-opacity:1;stroke-width:0.708661;stroke-linecap:round;stroke-linejoin:round;stroke:rgb(18.431373%,30.980392%,30.980392%);stroke-opacity:1;stroke-miterlimit:10;" d="M 259.832031 185.863281 C 259.832031 191.953125 254.898438 196.886719 248.808594 196.886719 C 242.71875 196.886719 237.785156 191.953125 237.785156 185.863281 C 237.785156 179.773438 242.71875 174.839844 248.808594 174.839844 C 254.898438 174.839844 259.832031 179.773438 259.832031 185.863281 "/>
<path style="fill-rule:nonzero;fill:rgb(18.431373%,30.980392%,30.980392%);fill-opacity:1;stroke-width:0.708661;stroke-linecap:round;stroke-linejoin:round;stroke:rgb(18.431373%,30.980392%,30.980392%);stroke-opacity:1;stroke-miterlimit:10;" d="M 266.882812 168.257812 C 266.882812 174.347656 261.945312 179.28125 255.859375 179.28125 C 249.769531 179.28125 244.832031 174.347656 244.832031 168.257812 C 244.832031 162.167969 249.769531 157.234375 255.859375 157.234375 C 261.945312 157.234375 266.882812 162.167969 266.882812 168.257812 "/>
<path style="fill:none;stroke-width:0.708661;stroke-linecap:round;stroke-linejoin:round;stroke:rgb(18.431373%,30.980392%,30.980392%);stroke-opacity:1;stroke-miterlimit:10;" d="M 273.929688 340.925781 C 273.929688 347.015625 268.996094 351.949219 262.90625 351.949219 C 256.820312 351.949219 251.882812 347.015625 251.882812 340.925781 C 251.882812 334.839844 256.820312 329.902344 262.90625 329.902344 C 268.996094 329.902344 273.929688 334.839844 273.929688 340.925781 "/>
<path style="fill-rule:nonzero;fill:rgb(18.431373%,30.980392%,30.980392%);fill-opacity:1;stroke-width:0.708661;stroke-linecap:round;stroke-linejoin:round;stroke:rgb(18.431373%,30.980392%,30.980392%);stroke-opacity:1;stroke-miterlimit:10;" d="M 280.980469 72.203125 C 280.980469 78.289062 276.042969 83.226562 269.957031 83.226562 C 263.867188 83.226562 258.933594 78.289062 258.933594 72.203125 C 258.933594 66.113281 263.867188 61.175781 269.957031 61.175781 C 276.042969 61.175781 280.980469 66.113281 280.980469 72.203125 "/>
<path style="fill-rule:nonzero;fill:rgb(18.431373%,30.980392%,30.980392%);fill-opacity:1;stroke-width:0.708661;stroke-linecap:round;stroke-linejoin:round;stroke:rgb(18.431373%,30.980392%,30.980392%);stroke-opacity:1;stroke-miterlimit:10;" d="M 288.03125 71.191406 C 288.03125 77.28125 283.09375 82.21875 277.003906 82.21875 C 270.917969 82.21875 265.980469 77.28125 265.980469 71.191406 C 265.980469 65.105469 270.917969 60.167969 277.003906 60.167969 C 283.09375 60.167969 288.03125 65.105469 288.03125 71.191406 "/>
<path style="fill-rule:nonzero;fill:rgb(18.431373%,30.980392%,30.980392%);fill-opacity:1;stroke-width:0.708661;stroke-linecap:round;stroke-linejoin:round;stroke:rgb(18.431373%,30.980392%,30.980392%);stroke-opacity:1;stroke-miterlimit:10;" d="M 295.078125 121.671875 C 295.078125 127.761719 290.144531 132.695312 284.054688 132.695312 C 277.964844 132.695312 273.03125 127.761719 273.03125 121.671875 C 273.03125 115.585938 277.964844 110.648438 284.054688 110.648438 C 290.144531 110.648438 295.078125 115.585938 295.078125 121.671875 "/>
<path style="fill-rule:nonzero;fill:rgb(18.431373%,30.980392%,30.980392%);fill-opacity:1;stroke-width:0.708661;stroke-linecap:round;stroke-linejoin:round;stroke:rgb(18.431373%,30.980392%,30.980392%);stroke-opacity:1;stroke-miterlimit:10;" d="M 302.128906 190.3125 C 302.128906 196.402344 297.191406 201.339844 291.105469 201.339844 C 285.015625 201.339844 280.078125 196.402344 280.078125 190.3125 C 280.078125 184.226562 285.015625 179.289062 291.105469 179.289062 C 297.191406 179.289062 302.128906 184.226562 302.128906 190.3125 "/>
<path style="fill:none;stroke-width:0.708661;stroke-linecap:round;stroke-linejoin:round;stroke:rgb(18.431373%,30.980392%,30.980392%);stroke-opacity:1;stroke-miterlimit:10;" d="M 309.175781 247.855469 C 309.175781 253.945312 304.242188 258.878906 298.152344 258.878906 C 292.066406 258.878906 287.128906 253.945312 287.128906 247.855469 C 287.128906 241.765625 292.066406 236.832031 298.152344 236.832031 C 304.242188 236.832031 309.175781 241.765625 309.175781 247.855469 "/>
<path style="fill-rule:nonzero;fill:rgb(18.431373%,30.980392%,30.980392%);fill-opacity:1;stroke-width:0.708661;stroke-linecap:round;stroke-linejoin:round;stroke:rgb(18.431373%,30.980392%,30.980392%);stroke-opacity:1;stroke-miterlimit:10;" d="M 316.226562 189.507812 C 316.226562 195.597656 311.289062 200.535156 305.203125 200.535156 C 299.113281 200.535156 294.179688 195.597656 294.179688 189.507812 C 294.179688 183.421875 299.113281 178.484375 305.203125 178.484375 C 311.289062 178.484375 316.226562 183.421875 316.226562 189.507812 "/>
<path style="fill-rule:nonzero;fill:rgb(18.431373%,30.980392%,30.980392%);fill-opacity:1;stroke-width:0.708661;stroke-linecap:round;stroke-linejoin:round;stroke:rgb(18.431373%,30.980392%,30.980392%);stroke-opacity:1;stroke-miterlimit:10;" d="M 323.277344 168.972656 C 323.277344 175.058594 318.339844 179.996094 312.25 179.996094 C 306.164062 179.996094 301.226562 175.058594 301.226562 168.972656 C 301.226562 162.882812 306.164062 157.945312 312.25 157.945312 C 318.339844 157.945312 323.277344 162.882812 323.277344 168.972656 "/>
<path style="fill-rule:nonzero;fill:rgb(18.431373%,30.980392%,30.980392%);fill-opacity:1;stroke-width:0.708661;stroke-linecap:round;stroke-linejoin:round;stroke:rgb(18.431373%,30.980392%,30.980392%);stroke-opacity:1;stroke-miterlimit:10;" d="M 330.324219 139.132812 C 330.324219 145.21875 325.390625 150.15625 319.300781 150.15625 C 313.210938 150.15625 308.277344 145.21875 308.277344 139.132812 C 308.277344 133.042969 313.210938 128.109375 319.300781 128.109375 C 325.390625 128.109375 330.324219 133.042969 330.324219 139.132812 "/>
<path style="fill:none;stroke-width:0.708661;stroke-linecap:round;stroke-linejoin:round;stroke:rgb(18.431373%,30.980392%,30.980392%);stroke-opacity:1;stroke-miterlimit:10;" d="M 337.375 289.390625 C 337.375 295.480469 332.4375 300.414062 326.351562 300.414062 C 320.261719 300.414062 315.324219 295.480469 315.324219 289.390625 C 315.324219 283.300781 320.261719 278.367188 326.351562 278.367188 C 332.4375 278.367188 337.375 283.300781 337.375 289.390625 "/>
<path style="fill:none;stroke-width:0.708661;stroke-linecap:round;stroke-linejoin:round;stroke:rgb(18.431373%,30.980392%,30.980392%);stroke-opacity:1;stroke-miterlimit:10;" d="M 344.421875 282.9375 C 344.421875 289.023438 339.488281 293.960938 333.398438 293.960938 C 327.3125 293.960938 322.375 289.023438 322.375 282.9375 C 322.375 276.847656 327.3125 271.910156 333.398438 271.910156 C 339.488281 271.910156 344.421875 276.847656 344.421875 282.9375 "/>
<path style="fill:none;stroke-width:0.708661;stroke-linecap:round;stroke-linejoin:round;stroke:rgb(18.431373%,30.980392%,30.980392%);stroke-opacity:1;stroke-miterlimit:10;" d="M 351.472656 270.144531 C 351.472656 276.230469 346.535156 281.167969 340.449219 281.167969 C 334.359375 281.167969 329.425781 276.230469 329.425781 270.144531 C 329.425781 264.054688 334.359375 259.117188 340.449219 259.117188 C 346.535156 259.117188 351.472656 264.054688 351.472656 270.144531 "/>
<path style="fill:none;stroke-width:0.708661;stroke-linecap:round;stroke-linejoin:round;stroke:rgb(18.431373%,30.980392%,30.980392%);stroke-opacity:1;stroke-miterlimit:10;" d="M 358.523438 349.3125 C 358.523438 355.402344 353.585938 360.335938 347.496094 360.335938 C 341.410156 360.335938 336.472656 355.402344 336.472656 349.3125 C 336.472656 343.222656 341.410156 338.289062 347.496094 338.289062 C 353.585938 338.289062 358.523438 343.222656 358.523438 349.3125 "/>
<path style="fill-rule:nonzero;fill:rgb(18.431373%,30.980392%,30.980392%);fill-opacity:1;stroke-width:0.708661;stroke-linecap:round;stroke-linejoin:round;stroke:rgb(18.431373%,30.980392%,30.980392%);stroke-opacity:1;stroke-miterlimit:10;" d="M 365.570312 198.214844 C 365.570312 204.304688 360.636719 209.242188 354.546875 209.242188 C 348.457031 209.242188 343.523438 204.304688 343.523438 198.214844 C 343.523438 192.128906 348.457031 187.191406 354.546875 187.191406 C 360.636719 187.191406 365.570312 192.128906 365.570312 198.214844 "/>
<path style="fill-rule:nonzero;fill:rgb(18.431373%,30.980392%,30.980392%);fill-opacity:1;stroke-width:0.708661;stroke-linecap:round;stroke-linejoin:round;stroke:rgb(18.431373%,30.980392%,30.980392%);stroke-opacity:1;stroke-miterlimit:10;" d="M 372.621094 193.167969 C 372.621094 199.253906 367.683594 204.191406 361.597656 204.191406 C 355.507812 204.191406 350.570312 199.253906 350.570312 193.167969 C 350.570312 187.078125 355.507812 182.144531 361.597656 182.144531 C 367.683594 182.144531 372.621094 187.078125 372.621094 193.167969 "/>
<path style="fill-rule:nonzero;fill:rgb(18.431373%,30.980392%,30.980392%);fill-opacity:1;stroke-width:0.708661;stroke-linecap:round;stroke-linejoin:round;stroke:rgb(18.431373%,30.980392%,30.980392%);stroke-opacity:1;stroke-miterlimit:10;" d="M 379.667969 95 C 379.667969 101.089844 374.734375 106.023438 368.644531 106.023438 C 362.558594 106.023438 357.621094 101.089844 357.621094 95 C 357.621094 88.914062 362.558594 83.976562 368.644531 83.976562 C 374.734375 83.976562 379.667969 88.914062 379.667969 95 "/>
<path style="fill:none;stroke-width:0.708661;stroke-linecap:round;stroke-linejoin:round;stroke:rgb(18.431373%,30.980392%,30.980392%);stroke-opacity:1;stroke-miterlimit:10;" d="M 386.71875 302.066406 C 386.71875 308.15625 381.78125 313.089844 375.695312 313.089844 C 369.605469 313.089844 364.671875 308.15625 364.671875 302.066406 C 364.671875 295.976562 369.605469 291.042969 375.695312 291.042969 C 381.78125 291.042969 386.71875 295.976562 386.71875 302.066406 "/>
<path style="fill:none;stroke-width:0.708661;stroke-linecap:round;stroke-linejoin:round;stroke:rgb(18.431373%,30.980392%,30.980392%);stroke-opacity:1;stroke-miterlimit:10;" d="M 393.769531 351.476562 C 393.769531 357.5625 388.832031 362.5 382.742188 362.5 C 376.65625 362.5 371.71875 357.5625 371.71875 351.476562 C 371.71875 345.386719 376.65625 340.453125 382.742188 340.453125 C 388.832031 340.453125 393.769531 345.386719 393.769531 351.476562 "/>
<path style="fill-rule:nonzero;fill:rgb(18.431373%,30.980392%,30.980392%);fill-opacity:1;stroke-width:0.708661;stroke-linecap:round;stroke-linejoin:round;stroke:rgb(18.431373%,30.980392%,30.980392%);stroke-opacity:1;stroke-miterlimit:10;" d="M 400.816406 144.136719 C 400.816406 150.226562 395.882812 155.160156 389.792969 155.160156 C 383.703125 155.160156 378.769531 150.226562 378.769531 144.136719 C 378.769531 138.046875 383.703125 133.113281 389.792969 133.113281 C 395.882812 133.113281 400.816406 138.046875 400.816406 144.136719 "/>
<path style="fill-rule:nonzero;fill:rgb(18.431373%,30.980392%,30.980392%);fill-opacity:1;stroke-width:0.708661;stroke-linecap:round;stroke-linejoin:round;stroke:rgb(18.431373%,30.980392%,30.980392%);stroke-opacity:1;stroke-miterlimit:10;" d="M 407.867188 194.164062 C 407.867188 200.253906 402.929688 205.191406 396.84375 205.191406 C 390.753906 205.191406 385.816406 200.253906 385.816406 194.164062 C 385.816406 188.078125 390.753906 183.140625 396.84375 183.140625 C 402.929688 183.140625 407.867188 188.078125 407.867188 194.164062 "/>
<path style="fill:none;stroke-width:0.708661;stroke-linecap:round;stroke-linejoin:round;stroke:rgb(18.431373%,30.980392%,30.980392%);stroke-opacity:1;stroke-miterlimit:10;" d="M 414.914062 308.429688 C 414.914062 314.515625 409.980469 319.453125 403.890625 319.453125 C 397.804688 319.453125 392.867188 314.515625 392.867188 308.429688 C 392.867188 302.339844 397.804688 297.402344 403.890625 297.402344 C 409.980469 297.402344 414.914062 302.339844 414.914062 308.429688 "/>
<path style="fill-rule:nonzero;fill:rgb(18.431373%,30.980392%,30.980392%);fill-opacity:1;stroke-width:0.708661;stroke-linecap:round;stroke-linejoin:round;stroke:rgb(18.431373%,30.980392%,30.980392%);stroke-opacity:1;stroke-miterlimit:10;" d="M 421.964844 205.050781 C 421.964844 211.140625 417.027344 216.074219 410.941406 216.074219 C 404.851562 216.074219 399.917969 211.140625 399.917969 205.050781 C 399.917969 198.964844 404.851562 194.027344 410.941406 194.027344 C 417.027344 194.027344 421.964844 198.964844 421.964844 205.050781 "/>
<path style="fill-rule:nonzero;fill:rgb(18.431373%,30.980392%,30.980392%);fill-opacity:1;stroke-width:0.708661;stroke-linecap:round;stroke-linejoin:round;stroke:rgb(18.431373%,30.980392%,30.980392%);stroke-opacity:1;stroke-miterlimit:10;" d="M 429.015625 153.023438 C 429.015625 159.113281 424.078125 164.046875 417.988281 164.046875 C 411.902344 164.046875 406.964844 159.113281 406.964844 153.023438 C 406.964844 146.933594 411.902344 142 417.988281 142 C 424.078125 142 429.015625 146.933594 429.015625 153.023438 "/>
<path style="fill:none;stroke-width:0.708661;stroke-linecap:round;stroke-linejoin:round;stroke:rgb(18.431373%,30.980392%,30.980392%);stroke-opacity:1;stroke-miterlimit:10;" d="M 436.0625 302.171875 C 436.0625 308.257812 431.128906 313.195312 425.039062 313.195312 C 418.949219 313.195312 414.015625 308.257812 414.015625 302.171875 C 414.015625 296.082031 418.949219 291.148438 425.039062 291.148438 C 431.128906 291.148438 436.0625 296.082031 436.0625 302.171875 "/>
<path style="fill-rule:nonzero;fill:rgb(18.431373%,30.980392%,30.980392%);fill-opacity:1;stroke-width:0.708661;stroke-linecap:round;stroke-linejoin:round;stroke:rgb(18.431373%,30.980392%,30.980392%);stroke-opacity:1;stroke-miterlimit:10;" d="M 443.113281 111.910156 C 443.113281 118 438.175781 122.933594 432.089844 122.933594 C 426 122.933594 421.0625 118 421.0625 111.910156 C 421.0625 105.820312 426 100.886719 432.089844 100.886719 C 438.175781 100.886719 443.113281 105.820312 443.113281 111.910156 "/>
<path style="fill:none;stroke-width:0.708661;stroke-linecap:round;stroke-linejoin:round;stroke:rgb(18.431373%,30.980392%,30.980392%);stroke-opacity:1;stroke-miterlimit:10;" d="M 450.160156 220.230469 C 450.160156 226.320312 445.226562 231.257812 439.136719 231.257812 C 433.050781 231.257812 428.113281 226.320312 428.113281 220.230469 C 428.113281 214.144531 433.050781 209.207031 439.136719 209.207031 C 445.226562 209.207031 450.160156 214.144531 450.160156 220.230469 "/>
<path style="fill:none;stroke-width:0.708661;stroke-linecap:round;stroke-linejoin:round;stroke:rgb(18.431373%,30.980392%,30.980392%);stroke-opacity:1;stroke-miterlimit:10;" d="M 457.210938 480.816406 C 457.210938 486.90625 452.273438 491.84375 446.1875 491.84375 C 440.097656 491.84375 435.164062 486.90625 435.164062 480.816406 C 435.164062 474.730469 440.097656 469.792969 446.1875 469.792969 C 452.273438 469.792969 457.210938 474.730469 457.210938 480.816406 "/>
<path style="fill:none;stroke-width:0.708661;stroke-linecap:round;stroke-linejoin:round;stroke:rgb(18.431373%,30.980392%,30.980392%);stroke-opacity:1;stroke-miterlimit:10;" d="M 464.261719 458.402344 C 464.261719 464.488281 459.324219 469.425781 453.234375 469.425781 C 447.148438 469.425781 442.210938 464.488281 442.210938 458.402344 C 442.210938 452.3125 447.148438 447.378906 453.234375 447.378906 C 459.324219 447.378906 464.261719 452.3125 464.261719 458.402344 "/>
<path style="fill-rule:nonzero;fill:rgb(18.431373%,30.980392%,30.980392%);fill-opacity:1;stroke-width:0.708661;stroke-linecap:round;stroke-linejoin:round;stroke:rgb(18.431373%,30.980392%,30.980392%);stroke-opacity:1;stroke-miterlimit:10;" d="M 471.308594 213.546875 C 471.308594 219.632812 466.375 224.570312 460.285156 224.570312 C 454.195312 224.570312 449.261719 219.632812 449.261719 213.546875 C 449.261719 207.457031 454.195312 202.523438 460.285156 202.523438 C 466.375 202.523438 471.308594 207.457031 471.308594 213.546875 "/>
<path style="fill:none;stroke-width:0.708661;stroke-linecap:round;stroke-linejoin:round;stroke:rgb(18.431373%,30.980392%,30.980392%);stroke-opacity:1;stroke-miterlimit:10;" d="M 478.359375 312.066406 C 478.359375 318.15625 473.421875 323.089844 467.335938 323.089844 C 461.246094 323.089844 456.308594 318.15625 456.308594 312.066406 C 456.308594 305.976562 461.246094 301.042969 467.335938 301.042969 C 473.421875 301.042969 478.359375 305.976562 478.359375 312.066406 "/>
<path style="fill:none;stroke-width:0.708661;stroke-linecap:round;stroke-linejoin:round;stroke:rgb(18.431373%,30.980392%,30.980392%);stroke-opacity:1;stroke-miterlimit:10;" d="M 485.40625 283.8125 C 485.40625 289.902344 480.472656 294.839844 474.382812 294.839844 C 468.296875 294.839844 463.359375 289.902344 463.359375 283.8125 C 463.359375 277.726562 468.296875 272.789062 474.382812 272.789062 C 480.472656 272.789062 485.40625 277.726562 485.40625 283.8125 "/>
<path style="fill:none;stroke-width:0.708661;stroke-linecap:round;stroke-linejoin:round;stroke:rgb(18.431373%,30.980392%,30.980392%);stroke-opacity:1;stroke-miterlimit:10;" d="M 492.457031 233.152344 C 492.457031 239.242188 487.519531 244.179688 481.433594 244.179688 C 475.34375 244.179688 470.410156 239.242188 470.410156 233.152344 C 470.410156 227.066406 475.34375 222.128906 481.433594 222.128906 C 487.519531 222.128906 492.457031 227.066406 492.457031 233.152344 "/>
<path style="fill:none;stroke-width:0.708661;stroke-linecap:round;stroke-linejoin:round;stroke:rgb(18.431373%,30.980392%,30.980392%);stroke-opacity:1;stroke-miterlimit:10;" d="M 499.507812 257.199219 C 499.507812 263.289062 494.570312 268.222656 488.480469 268.222656 C 482.394531 268.222656 477.457031 263.289062 477.457031 257.199219 C 477.457031 251.109375 482.394531 246.175781 488.480469 246.175781 C 494.570312 246.175781 499.507812 251.109375 499.507812 257.199219 "/>
<path style="fill:none;stroke-width:0.708661;stroke-linecap:round;stroke-linejoin:round;stroke:rgb(18.431373%,30.980392%,30.980392%);stroke-opacity:1;stroke-miterlimit:10;" d="M 506.554688 319.035156 C 506.554688 325.121094 501.621094 330.058594 495.53125 330.058594 C 489.441406 330.058594 484.507812 325.121094 484.507812 319.035156 C 484.507812 312.945312 489.441406 308.011719 495.53125 308.011719 C 501.621094 308.011719 506.554688 312.945312 506.554688 319.035156 "/>
<path style="fill:none;stroke-width:0.708661;stroke-linecap:round;stroke-linejoin:round;stroke:rgb(18.431373%,30.980392%,30.980392%);stroke-opacity:1;stroke-miterlimit:10;" d="M 513.605469 346.023438 C 513.605469 352.109375 508.667969 357.046875 502.582031 357.046875 C 496.492188 357.046875 491.554688 352.109375 491.554688 346.023438 C 491.554688 339.933594 496.492188 334.996094 502.582031 334.996094 C 508.667969 334.996094 513.605469 339.933594 513.605469 346.023438 "/>
<path style="fill:none;stroke-width:0.708661;stroke-linecap:round;stroke-linejoin:round;stroke:rgb(18.431373%,30.980392%,30.980392%);stroke-opacity:1;stroke-miterlimit:10;" d="M 520.652344 277.246094 C 520.652344 283.332031 515.71875 288.269531 509.628906 288.269531 C 503.542969 288.269531 498.605469 283.332031 498.605469 277.246094 C 498.605469 271.15625 503.542969 266.21875 509.628906 266.21875 C 515.71875 266.21875 520.652344 271.15625 520.652344 277.246094 "/>
<path style="fill-rule:nonzero;fill:rgb(18.431373%,30.980392%,30.980392%);fill-opacity:1;stroke-width:0.708661;stroke-linecap:round;stroke-linejoin:round;stroke:rgb(18.431373%,30.980392%,30.980392%);stroke-opacity:1;stroke-miterlimit:10;" d="M 527.703125 76.265625 C 527.703125 82.355469 522.765625 87.289062 516.679688 87.289062 C 510.589844 87.289062 505.65625 82.355469 505.65625 76.265625 C 505.65625 70.175781 510.589844 65.242188 516.679688 65.242188 C 522.765625 65.242188 527.703125 70.175781 527.703125 76.265625 "/>
<path style="fill-rule:nonzero;fill:rgb(18.431373%,30.980392%,30.980392%);fill-opacity:1;stroke-width:0.708661;stroke-linecap:round;stroke-linejoin:round;stroke:rgb(18.431373%,30.980392%,30.980392%);stroke-opacity:1;stroke-miterlimit:10;" d="M 534.753906 116.785156 C 534.753906 122.871094 529.816406 127.808594 523.726562 127.808594 C 517.640625 127.808594 512.703125 122.871094 512.703125 116.785156 C 512.703125 110.695312 517.640625 105.757812 523.726562 105.757812 C 529.816406 105.757812 534.753906 110.695312 534.753906 116.785156 "/>
<path style="fill:none;stroke-width:0.708661;stroke-linecap:round;stroke-linejoin:round;stroke:rgb(18.431373%,30.980392%,30.980392%);stroke-opacity:1;stroke-miterlimit:10;" d="M 541.800781 251.496094 C 541.800781 257.585938 536.867188 262.519531 530.777344 262.519531 C 524.6875 262.519531 519.753906 257.585938 519.753906 251.496094 C 519.753906 245.40625 524.6875 240.472656 530.777344 240.472656 C 536.867188 240.472656 541.800781 245.40625 541.800781 251.496094 "/>
<path style="fill:none;stroke-width:0.708661;stroke-linecap:round;stroke-linejoin:round;stroke:rgb(18.431373%,30.980392%,30.980392%);stroke-opacity:1;stroke-miterlimit:10;" d="M 548.851562 278.109375 C 548.851562 284.199219 543.914062 289.132812 537.828125 289.132812 C 531.738281 289.132812 526.800781 284.199219 526.800781 278.109375 C 526.800781 272.023438 531.738281 267.085938 537.828125 267.085938 C 543.914062 267.085938 548.851562 272.023438 548.851562 278.109375 "/>
<path style="fill:none;stroke-width:0.708661;stroke-linecap:round;stroke-linejoin:round;stroke:rgb(18.431373%,30.980392%,30.980392%);stroke-opacity:1;stroke-miterlimit:10;" d="M 555.898438 431.90625 C 555.898438 437.992188 550.964844 442.929688 544.875 442.929688 C 538.789062 442.929688 533.851562 437.992188 533.851562 431.90625 C 533.851562 425.816406 538.789062 420.882812 544.875 420.882812 C 550.964844 420.882812 555.898438 425.816406 555.898438 431.90625 "/>
<path style="fill:none;stroke-width:0.708661;stroke-linecap:round;stroke-linejoin:round;stroke:rgb(18.431373%,30.980392%,30.980392%);stroke-opacity:1;stroke-miterlimit:10;" d="M 562.949219 269.871094 C 562.949219 275.960938 558.011719 280.894531 551.925781 280.894531 C 545.835938 280.894531 540.902344 275.960938 540.902344 269.871094 C 540.902344 263.78125 545.835938 258.847656 551.925781 258.847656 C 558.011719 258.847656 562.949219 263.78125 562.949219 269.871094 "/>
<path style="fill-rule:nonzero;fill:rgb(18.431373%,30.980392%,30.980392%);fill-opacity:1;stroke-width:0.708661;stroke-linecap:round;stroke-linejoin:round;stroke:rgb(18.431373%,30.980392%,30.980392%);stroke-opacity:1;stroke-miterlimit:10;" d="M 570 193.589844 C 570 199.679688 565.0625 204.617188 558.972656 204.617188 C 552.886719 204.617188 547.949219 199.679688 547.949219 193.589844 C 547.949219 187.503906 552.886719 182.566406 558.972656 182.566406 C 565.0625 182.566406 570 187.503906 570 193.589844 "/>
<path style="fill:none;stroke-width:0.708661;stroke-linecap:round;stroke-linejoin:round;stroke:rgb(18.431373%,30.980392%,30.980392%);stroke-opacity:1;stroke-miterlimit:10;" d="M 577.046875 375.382812 C 577.046875 381.472656 572.113281 386.410156 566.023438 386.410156 C 559.933594 386.410156 555 381.472656 555 375.382812 C 555 369.296875 559.933594 364.359375 566.023438 364.359375 C 572.113281 364.359375 577.046875 369.296875 577.046875 375.382812 "/>
<path style="fill-rule:nonzero;fill:rgb(18.431373%,30.980392%,30.980392%);fill-opacity:1;stroke-width:0.708661;stroke-linecap:round;stroke-linejoin:round;stroke:rgb(18.431373%,30.980392%,30.980392%);stroke-opacity:1;stroke-miterlimit:10;" d="M 584.097656 176.65625 C 584.097656 182.746094 579.160156 187.679688 573.074219 187.679688 C 566.984375 187.679688 562.046875 182.746094 562.046875 176.65625 C 562.046875 170.566406 566.984375 165.632812 573.074219 165.632812 C 579.160156 165.632812 584.097656 170.566406 584.097656 176.65625 "/>
<path style="fill-rule:nonzero;fill:rgb(18.431373%,30.980392%,30.980392%);fill-opacity:1;stroke-width:0.708661;stroke-linecap:round;stroke-linejoin:round;stroke:rgb(18.431373%,30.980392%,30.980392%);stroke-opacity:1;stroke-miterlimit:10;" d="M 591.144531 170.851562 C 591.144531 176.941406 586.210938 181.875 580.121094 181.875 C 574.035156 181.875 569.097656 176.941406 569.097656 170.851562 C 569.097656 164.761719 574.035156 159.828125 580.121094 159.828125 C 586.210938 159.828125 591.144531 164.761719 591.144531 170.851562 "/>
<path style="fill:none;stroke-width:0.708661;stroke-linecap:round;stroke-linejoin:round;stroke:rgb(18.431373%,30.980392%,30.980392%);stroke-opacity:1;stroke-miterlimit:10;" d="M 598.195312 369.4375 C 598.195312 375.527344 593.257812 380.460938 587.171875 380.460938 C 581.082031 380.460938 576.148438 375.527344 576.148438 369.4375 C 576.148438 363.347656 581.082031 358.414062 587.171875 358.414062 C 593.257812 358.414062 598.195312 363.347656 598.195312 369.4375 "/>
<path style="fill-rule:nonzero;fill:rgb(18.431373%,30.980392%,30.980392%);fill-opacity:1;stroke-width:0.708661;stroke-linecap:round;stroke-linejoin:round;stroke:rgb(18.431373%,30.980392%,30.980392%);stroke-opacity:1;stroke-miterlimit:10;" d="M 605.246094 149.121094 C 605.246094 155.210938 600.308594 160.144531 594.21875 160.144531 C 588.132812 160.144531 583.195312 155.210938 583.195312 149.121094 C 583.195312 143.035156 588.132812 138.097656 594.21875 138.097656 C 600.308594 138.097656 605.246094 143.035156 605.246094 149.121094 "/>
<path style="fill:none;stroke-width:0.708661;stroke-linecap:round;stroke-linejoin:round;stroke:rgb(18.431373%,30.980392%,30.980392%);stroke-opacity:1;stroke-miterlimit:10;" d="M 612.292969 290.082031 C 612.292969 296.167969 607.359375 301.105469 601.269531 301.105469 C 595.179688 301.105469 590.246094 296.167969 590.246094 290.082031 C 590.246094 283.992188 595.179688 279.054688 601.269531 279.054688 C 607.359375 279.054688 612.292969 283.992188 612.292969 290.082031 "/>
<path style="fill:none;stroke-width:0.708661;stroke-linecap:round;stroke-linejoin:round;stroke:rgb(18.431373%,30.980392%,30.980392%);stroke-opacity:1;stroke-miterlimit:10;" d="M 619.34375 305.488281 C 619.34375 311.574219 614.40625 316.511719 608.320312 316.511719 C 602.230469 316.511719 597.292969 311.574219 597.292969 305.488281 C 597.292969 299.398438 602.230469 294.460938 608.320312 294.460938 C 614.40625 294.460938 619.34375 299.398438 619.34375 305.488281 "/>
<path style="fill-rule:nonzero;fill:rgb(18.431373%,30.980392%,30.980392%);fill-opacity:1;stroke-width:0.708661;stroke-linecap:round;stroke-linejoin:round;stroke:rgb(18.431373%,30.980392%,30.980392%);stroke-opacity:1;stroke-miterlimit:10;" d="M 626.390625 170.277344 C 626.390625 176.363281 621.457031 181.300781 615.367188 181.300781 C 609.28125 181.300781 604.34375 176.363281 604.34375 170.277344 C 604.34375 164.1875 609.28125 159.253906 615.367188 159.253906 C 621.457031 159.253906 626.390625 164.1875 626.390625 170.277344 "/>
<path style="fill:none;stroke-width:0.708661;stroke-linecap:round;stroke-linejoin:round;stroke:rgb(18.431373%,30.980392%,30.980392%);stroke-opacity:1;stroke-miterlimit:10;" d="M 633.441406 220.585938 C 633.441406 226.675781 628.503906 231.609375 622.417969 231.609375 C 616.328125 231.609375 611.394531 226.675781 611.394531 220.585938 C 611.394531 214.496094 616.328125 209.5625 622.417969 209.5625 C 628.503906 209.5625 633.441406 214.496094 633.441406 220.585938 "/>
<path style="fill:none;stroke-width:0.708661;stroke-linecap:round;stroke-linejoin:round;stroke:rgb(18.431373%,30.980392%,30.980392%);stroke-opacity:1;stroke-miterlimit:10;" d="M 640.492188 296.179688 C 640.492188 302.269531 635.554688 307.207031 629.464844 307.207031 C 623.378906 307.207031 618.441406 302.269531 618.441406 296.179688 C 618.441406 290.09375 623.378906 285.15625 629.464844 285.15625 C 635.554688 285.15625 640.492188 290.09375 640.492188 296.179688 "/>
<path style="fill:none;stroke-width:0.708661;stroke-linecap:round;stroke-linejoin:round;stroke:rgb(18.431373%,30.980392%,30.980392%);stroke-opacity:1;stroke-miterlimit:10;" d="M 647.539062 377.835938 C 647.539062 383.921875 642.605469 388.859375 636.515625 388.859375 C 630.425781 388.859375 625.492188 383.921875 625.492188 377.835938 C 625.492188 371.746094 630.425781 366.8125 636.515625 366.8125 C 642.605469 366.8125 647.539062 371.746094 647.539062 377.835938 "/>
<path style="fill-rule:nonzero;fill:rgb(18.431373%,30.980392%,30.980392%);fill-opacity:1;stroke-width:0.708661;stroke-linecap:round;stroke-linejoin:round;stroke:rgb(18.431373%,30.980392%,30.980392%);stroke-opacity:1;stroke-miterlimit:10;" d="M 654.589844 164.691406 C 654.589844 170.777344 649.652344 175.714844 643.566406 175.714844 C 637.476562 175.714844 632.539062 170.777344 632.539062 164.691406 C 632.539062 158.601562 637.476562 153.667969 643.566406 153.667969 C 649.652344 153.667969 654.589844 158.601562 654.589844 164.691406 "/>
<path style="fill:none;stroke-width:0.708661;stroke-linecap:round;stroke-linejoin:round;stroke:rgb(18.431373%,30.980392%,30.980392%);stroke-opacity:1;stroke-miterlimit:10;" d="M 661.636719 368.785156 C 661.636719 374.871094 656.703125 379.808594 650.613281 379.808594 C 644.527344 379.808594 639.589844 374.871094 639.589844 368.785156 C 639.589844 362.695312 644.527344 357.757812 650.613281 357.757812 C 656.703125 357.757812 661.636719 362.695312 661.636719 368.785156 "/>
<path style="fill:none;stroke-width:0.708661;stroke-linecap:round;stroke-linejoin:round;stroke:rgb(18.431373%,30.980392%,30.980392%);stroke-opacity:1;stroke-miterlimit:10;" d="M 668.6875 449.054688 C 668.6875 455.140625 663.75 460.078125 657.664062 460.078125 C 651.574219 460.078125 646.640625 455.140625 646.640625 449.054688 C 646.640625 442.964844 651.574219 438.027344 657.664062 438.027344 C 663.75 438.027344 668.6875 442.964844 668.6875 449.054688 "/>
<path style="fill-rule:nonzero;fill:rgb(18.431373%,30.980392%,30.980392%);fill-opacity:1;stroke-width:0.708661;stroke-linecap:round;stroke-linejoin:round;stroke:rgb(18.431373%,30.980392%,30.980392%);stroke-opacity:1;stroke-miterlimit:10;" d="M 675.738281 161.007812 C 675.738281 167.097656 670.800781 172.03125 664.710938 172.03125 C 658.625 172.03125 653.6875 167.097656 653.6875 161.007812 C 653.6875 154.917969 658.625 149.984375 664.710938 149.984375 C 670.800781 149.984375 675.738281 154.917969 675.738281 161.007812 "/>
<path style="fill-rule:nonzero;fill:rgb(18.431373%,30.980392%,30.980392%);fill-opacity:1;stroke-width:0.708661;stroke-linecap:round;stroke-linejoin:round;stroke:rgb(18.431373%,30.980392%,30.980392%);stroke-opacity:1;stroke-miterlimit:10;" d="M 682.785156 171.230469 C 682.785156 177.320312 677.851562 182.253906 671.761719 182.253906 C 665.671875 182.253906 660.738281 177.320312 660.738281 171.230469 C 660.738281 165.144531 665.671875 160.207031 671.761719 160.207031 C 677.851562 160.207031 682.785156 165.144531 682.785156 171.230469 "/>
<path style="fill-rule:nonzero;fill:rgb(18.431373%,30.980392%,30.980392%);fill-opacity:1;stroke-width:0.708661;stroke-linecap:round;stroke-linejoin:round;stroke:rgb(18.431373%,30.980392%,30.980392%);stroke-opacity:1;stroke-miterlimit:10;" d="M 689.835938 200.980469 C 689.835938 207.066406 684.898438 212.003906 678.8125 212.003906 C 672.722656 212.003906 667.785156 207.066406 667.785156 200.980469 C 667.785156 194.890625 672.722656 189.953125 678.8125 189.953125 C 684.898438 189.953125 689.835938 194.890625 689.835938 200.980469 "/>
<path style="fill:none;stroke-width:0.708661;stroke-linecap:round;stroke-linejoin:round;stroke:rgb(18.431373%,30.980392%,30.980392%);stroke-opacity:1;stroke-miterlimit:10;" d="M 696.882812 492.222656 C 696.882812 498.308594 691.949219 503.246094 685.859375 503.246094 C 679.773438 503.246094 674.835938 498.308594 674.835938 492.222656 C 674.835938 486.132812 679.773438 481.195312 685.859375 481.195312 C 691.949219 481.195312 696.882812 486.132812 696.882812 492.222656 "/>
<path style="fill:none;stroke-width:0.708661;stroke-linecap:round;stroke-linejoin:round;stroke:rgb(18.431373%,30.980392%,30.980392%);stroke-opacity:1;stroke-miterlimit:10;" d="M 703.933594 285.882812 C 703.933594 291.96875 698.996094 296.90625 692.910156 296.90625 C 686.820312 296.90625 681.886719 291.96875 681.886719 285.882812 C 681.886719 279.792969 686.820312 274.855469 692.910156 274.855469 C 698.996094 274.855469 703.933594 279.792969 703.933594 285.882812 "/>
<path style="fill:none;stroke-width:0.708661;stroke-linecap:round;stroke-linejoin:round;stroke:rgb(18.431373%,30.980392%,30.980392%);stroke-opacity:1;stroke-miterlimit:10;" d="M 710.984375 249.847656 C 710.984375 255.9375 706.046875 260.871094 699.957031 260.871094 C 693.871094 260.871094 688.933594 255.9375 688.933594 249.847656 C 688.933594 243.761719 693.871094 238.824219 699.957031 238.824219 C 706.046875 238.824219 710.984375 243.761719 710.984375 249.847656 "/>
<path style="fill-rule:nonzero;fill:rgb(18.431373%,30.980392%,30.980392%);fill-opacity:1;stroke-width:0.708661;stroke-linecap:round;stroke-linejoin:round;stroke:rgb(18.431373%,30.980392%,30.980392%);stroke-opacity:1;stroke-miterlimit:10;" d="M 718.03125 138.28125 C 718.03125 144.367188 713.097656 149.304688 707.007812 149.304688 C 700.917969 149.304688 695.984375 144.367188 695.984375 138.28125 C 695.984375 132.191406 700.917969 127.257812 707.007812 127.257812 C 713.097656 127.257812 718.03125 132.191406 718.03125 138.28125 "/>
<path style="fill:none;stroke-width:0.708661;stroke-linecap:round;stroke-linejoin:round;stroke:rgb(18.431373%,30.980392%,30.980392%);stroke-opacity:1;stroke-miterlimit:10;" d="M 725.082031 227.792969 C 725.082031 233.878906 720.144531 238.816406 714.058594 238.816406 C 707.96875 238.816406 703.03125 233.878906 703.03125 227.792969 C 703.03125 221.703125 707.96875 216.765625 714.058594 216.765625 C 720.144531 216.765625 725.082031 221.703125 725.082031 227.792969 "/>
<path style="fill:none;stroke-width:0.708661;stroke-linecap:round;stroke-linejoin:round;stroke:rgb(18.431373%,30.980392%,30.980392%);stroke-opacity:1;stroke-miterlimit:10;" d="M 732.128906 386.253906 C 732.128906 392.339844 727.195312 397.277344 721.105469 397.277344 C 715.019531 397.277344 710.082031 392.339844 710.082031 386.253906 C 710.082031 380.164062 715.019531 375.230469 721.105469 375.230469 C 727.195312 375.230469 732.128906 380.164062 732.128906 386.253906 "/>
<path style="fill:none;stroke-width:4.267913;stroke-linecap:butt;stroke-linejoin:round;stroke:rgb(90.196078%,25.490196%,45.098039%);stroke-opacity:1;stroke-dasharray:17.071654,17.071654;stroke-miterlimit:10;" d="M 0 154.480469 L 756 154.480469 "/>
</g>
</svg>
