<?xml version="1.0" encoding="UTF-8"?>
<svg xmlns="http://www.w3.org/2000/svg" xmlns:xlink="http://www.w3.org/1999/xlink" width="756pt" height="504pt" viewBox="0 0 756 504" version="1.1">
<g id="surface97">
<rect x="0" y="0" width="756" height="504" style="fill:rgb(100%,100%,100%);fill-opacity:1;stroke:none;"/>
<path style="fill:none;stroke-width:0.708661;stroke-linecap:round;stroke-linejoin:round;stroke:rgb(18.431373%,30.980392%,30.980392%);stroke-opacity:1;stroke-miterlimit:10;" d="M 28.921875 260.214844 C 28.921875 263.359375 26.375 265.90625 23.234375 265.90625 C 20.089844 265.90625 17.542969 263.359375 17.542969 260.214844 C 17.542969 257.074219 20.089844 254.527344 23.234375 254.527344 C 26.375 254.527344 28.921875 257.074219 28.921875 260.214844 "/>
<path style="fill:none;stroke-width:0.708661;stroke-linecap:round;stroke-linejoin:round;stroke:rgb(18.431373%,30.980392%,30.980392%);stroke-opacity:1;stroke-miterlimit:10;" d="M 35.972656 379.199219 C 35.972656 382.339844 33.425781 384.886719 30.28125 384.886719 C 27.140625 384.886719 24.59375 382.339844 24.59375 379.199219 C 24.59375 376.054688 27.140625 373.507812 30.28125 373.507812 C 33.425781 373.507812 35.972656 376.054688 35.972656 379.199219 "/>
<path style="fill:none;stroke-width:0.708661;stroke-linecap:round;stroke-linejoin:round;stroke:rgb(18.431373%,30.980392%,30.980392%);stroke-opacity:1;stroke-miterlimit:10;" d="M 43.019531 207.921875 C 43.019531 211.066406 40.472656 213.613281 37.332031 213.613281 C 34.191406 213.613281 31.644531 211.066406 31.644531 207.921875 C 31.644531 204.78125 34.191406 202.234375 37.332031 202.234375 C 40.472656 202.234375 43.019531 204.78125 43.019531 207.921875 "/>
<path style="fill:none;stroke-width:0.708661;stroke-linecap:round;stroke-linejoin:round;stroke:rgb(18.431373%,30.980392%,30.980392%);stroke-opacity:1;stroke-miterlimit:10;" d="M 50.070312 245.386719 C 50.070312 248.527344 47.523438 251.074219 44.382812 251.074219 C 41.238281 251.074219 38.691406 248.527344 38.691406 245.386719 C 38.691406 242.246094 41.238281 239.699219 44.382812 239.699219 C 47.523438 239.699219 50.070312 242.246094 50.070312 245.386719 "/>
<path style="fill-rule:nonzero;fill:rgb(18.431373%,30.980392%,30.980392%);fill-opacity:1;stroke-width:0.708661;stroke-linecap:round;stroke-linejoin:round;stroke:rgb(18.431373%,30.980392%,30.980392%);stroke-opacity:1;stroke-miterlimit:10;" d="M 57.121094 300.574219 C 57.121094 303.714844 54.574219 306.261719 51.429688 306.261719 C 48.289062 306.261719 45.742188 303.714844 45.742188 300.574219 C 45.742188 297.429688 48.289062 294.882812 51.429688 294.882812 C 54.574219 294.882812 57.121094 297.429688 57.121094 300.574219 "/>
<path style="fill:none;stroke-width:0.708661;stroke-linecap:round;stroke-linejoin:round;stroke:rgb(18.431373%,30.980392%,30.980392%);stroke-opacity:1;stroke-miterlimit:10;" d="M 64.167969 241.769531 C 64.167969 244.914062 61.621094 247.460938 58.480469 247.460938 C 55.335938 247.460938 52.789062 244.914062 52.789062 241.769531 C 52.789062 238.628906 55.335938 236.082031 58.480469 236.082031 C 61.621094 236.082031 64.167969 238.628906 64.167969 241.769531 "/>
<path style="fill-rule:nonzero;fill:rgb(18.431373%,30.980392%,30.980392%);fill-opacity:1;stroke-width:0.708661;stroke-linecap:round;stroke-linejoin:round;stroke:rgb(18.431373%,30.980392%,30.980392%);stroke-opacity:1;stroke-miterlimit:10;" d="M 71.21875 246.195312 C 71.21875 249.339844 68.671875 251.886719 65.527344 251.886719 C 62.386719 251.886719 59.839844 249.339844 59.839844 246.195312 C 59.839844 243.054688 62.386719 240.507812 65.527344 240.507812 C 68.671875 240.507812 71.21875 243.054688 71.21875 246.195312 "/>
<path style="fill:none;stroke-width:0.708661;stroke-linecap:round;stroke-linejoin:round;stroke:rgb(18.431373%,30.980392%,30.980392%);stroke-opacity:1;stroke-miterlimit:10;" d="M 78.265625 322.070312 C 78.265625 325.210938 75.71875 327.757812 72.578125 327.757812 C 69.4375 327.757812 66.890625 325.210938 66.890625 322.070312 C 66.890625 318.929688 69.4375 316.382812 72.578125 316.382812 C 75.71875 316.382812 78.265625 318.929688 78.265625 322.070312 "/>
<path style="fill:none;stroke-width:0.708661;stroke-linecap:round;stroke-linejoin:round;stroke:rgb(18.431373%,30.980392%,30.980392%);stroke-opacity:1;stroke-miterlimit:10;" d="M 85.316406 187.277344 C 85.316406 190.421875 82.769531 192.96875 79.628906 192.96875 C 76.484375 192.96875 73.9375 190.421875 73.9375 187.277344 C 73.9375 184.136719 76.484375 181.589844 79.628906 181.589844 C 82.769531 181.589844 85.316406 184.136719 85.316406 187.277344 "/>
<path style="fill:none;stroke-width:0.708661;stroke-linecap:round;stroke-linejoin:round;stroke:rgb(18.431373%,30.980392%,30.980392%);stroke-opacity:1;stroke-miterlimit:10;" d="M 92.367188 121.296875 C 92.367188 124.441406 89.820312 126.988281 86.675781 126.988281 C 83.535156 126.988281 80.988281 124.441406 80.988281 121.296875 C 80.988281 118.15625 83.535156 115.609375 86.675781 115.609375 C 89.820312 115.609375 92.367188 118.15625 92.367188 121.296875 "/>
<path style="fill:none;stroke-width:0.708661;stroke-linecap:round;stroke-linejoin:round;stroke:rgb(18.431373%,30.980392%,30.980392%);stroke-opacity:1;stroke-miterlimit:10;" d="M 99.414062 309.796875 C 99.414062 312.9375 96.867188 315.484375 93.726562 315.484375 C 90.582031 315.484375 88.035156 312.9375 88.035156 309.796875 C 88.035156 306.652344 90.582031 304.105469 93.726562 304.105469 C 96.867188 304.105469 99.414062 306.652344 99.414062 309.796875 "/>
<path style="fill-rule:nonzero;fill:rgb(18.431373%,30.980392%,30.980392%);fill-opacity:1;stroke-width:0.708661;stroke-linecap:round;stroke-linejoin:round;stroke:rgb(18.431373%,30.980392%,30.980392%);stroke-opacity:1;stroke-miterlimit:10;" d="M 106.464844 339.375 C 106.464844 342.515625 103.917969 345.0625 100.773438 345.0625 C 97.632812 345.0625 95.085938 342.515625 95.085938 339.375 C 95.085938 336.234375 97.632812 333.683594 100.773438 333.683594 C 103.917969 333.683594 106.464844 336.234375 106.464844 339.375 "/>
<path style="fill:none;stroke-width:0.708661;stroke-linecap:round;stroke-linejoin:round;stroke:rgb(18.431373%,30.980392%,30.980392%);stroke-opacity:1;stroke-miterlimit:10;" d="M 113.511719 241.433594 C 113.511719 244.578125 110.964844 247.125 107.824219 247.125 C 104.683594 247.125 102.136719 244.578125 102.136719 241.433594 C 102.136719 238.292969 104.683594 235.746094 107.824219 235.746094 C 110.964844 235.746094 113.511719 238.292969 113.511719 241.433594 "/>
<path style="fill:none;stroke-width:0.708661;stroke-linecap:round;stroke-linejoin:round;stroke:rgb(18.431373%,30.980392%,30.980392%);stroke-opacity:1;stroke-miterlimit:10;" d="M 120.5625 304.050781 C 120.5625 307.191406 118.015625 309.738281 114.875 309.738281 C 111.730469 309.738281 109.183594 307.191406 109.183594 304.050781 C 109.183594 300.90625 111.730469 298.359375 114.875 298.359375 C 118.015625 298.359375 120.5625 300.90625 120.5625 304.050781 "/>
<path style="fill:none;stroke-width:0.708661;stroke-linecap:round;stroke-linejoin:round;stroke:rgb(18.431373%,30.980392%,30.980392%);stroke-opacity:1;stroke-miterlimit:10;" d="M 127.613281 114.027344 C 127.613281 117.167969 125.066406 119.714844 121.921875 119.714844 C 118.78125 119.714844 116.234375 117.167969 116.234375 114.027344 C 116.234375 110.882812 118.78125 108.335938 121.921875 108.335938 C 125.066406 108.335938 127.613281 110.882812 127.613281 114.027344 "/>
<path style="fill:none;stroke-width:0.708661;stroke-linecap:round;stroke-linejoin:round;stroke:rgb(18.431373%,30.980392%,30.980392%);stroke-opacity:1;stroke-miterlimit:10;" d="M 134.660156 311.527344 C 134.660156 314.667969 132.113281 317.214844 128.972656 317.214844 C 125.828125 317.214844 123.28125 314.667969 123.28125 311.527344 C 123.28125 308.386719 125.828125 305.835938 128.972656 305.835938 C 132.113281 305.835938 134.660156 308.386719 134.660156 311.527344 "/>
<path style="fill-rule:nonzero;fill:rgb(18.431373%,30.980392%,30.980392%);fill-opacity:1;stroke-width:0.708661;stroke-linecap:round;stroke-linejoin:round;stroke:rgb(18.431373%,30.980392%,30.980392%);stroke-opacity:1;stroke-miterlimit:10;" d="M 141.710938 195.902344 C 141.710938 199.042969 139.164062 201.589844 136.019531 201.589844 C 132.878906 201.589844 130.332031 199.042969 130.332031 195.902344 C 130.332031 192.761719 132.878906 190.210938 136.019531 190.210938 C 139.164062 190.210938 141.710938 192.761719 141.710938 195.902344 "/>
<path style="fill:none;stroke-width:0.708661;stroke-linecap:round;stroke-linejoin:round;stroke:rgb(18.431373%,30.980392%,30.980392%);stroke-opacity:1;stroke-miterlimit:10;" d="M 148.757812 130.769531 C 148.757812 133.914062 146.210938 136.460938 143.070312 136.460938 C 139.929688 136.460938 137.382812 133.914062 137.382812 130.769531 C 137.382812 127.628906 139.929688 125.082031 143.070312 125.082031 C 146.210938 125.082031 148.757812 127.628906 148.757812 130.769531 "/>
<path style="fill:none;stroke-width:0.708661;stroke-linecap:round;stroke-linejoin:round;stroke:rgb(18.431373%,30.980392%,30.980392%);stroke-opacity:1;stroke-miterlimit:10;" d="M 155.808594 23.4375 C 155.808594 26.582031 153.261719 29.128906 150.121094 29.128906 C 146.976562 29.128906 144.429688 26.582031 144.429688 23.4375 C 144.429688 20.296875 146.976562 17.75 150.121094 17.75 C 153.261719 17.75 155.808594 20.296875 155.808594 23.4375 "/>
<path style="fill-rule:nonzero;fill:rgb(18.431373%,30.980392%,30.980392%);fill-opacity:1;stroke-width:0.708661;stroke-linecap:round;stroke-linejoin:round;stroke:rgb(18.431373%,30.980392%,30.980392%);stroke-opacity:1;stroke-miterlimit:10;" d="M 162.859375 226.273438 C 162.859375 229.414062 160.3125 231.960938 157.167969 231.960938 C 154.027344 231.960938 151.480469 229.414062 151.480469 226.273438 C 151.480469 223.128906 154.027344 220.582031 157.167969 220.582031 C 160.3125 220.582031 162.859375 223.128906 162.859375 226.273438 "/>
<path style="fill:none;stroke-width:0.708661;stroke-linecap:round;stroke-linejoin:round;stroke:rgb(18.431373%,30.980392%,30.980392%);stroke-opacity:1;stroke-miterlimit:10;" d="M 169.90625 99.316406 C 169.90625 102.457031 167.359375 105.003906 164.21875 105.003906 C 161.074219 105.003906 158.527344 102.457031 158.527344 99.316406 C 158.527344 96.175781 161.074219 93.628906 164.21875 93.628906 C 167.359375 93.628906 169.90625 96.175781 169.90625 99.316406 "/>
<path style="fill:none;stroke-width:0.708661;stroke-linecap:round;stroke-linejoin:round;stroke:rgb(18.431373%,30.980392%,30.980392%);stroke-opacity:1;stroke-miterlimit:10;" d="M 176.957031 209.886719 C 176.957031 213.03125 174.410156 215.578125 171.265625 215.578125 C 168.125 215.578125 165.578125 213.03125 165.578125 209.886719 C 165.578125 206.746094 168.125 204.199219 171.265625 204.199219 C 174.410156 204.199219 176.957031 206.746094 176.957031 209.886719 "/>
<path style="fill:none;stroke-width:0.708661;stroke-linecap:round;stroke-linejoin:round;stroke:rgb(18.431373%,30.980392%,30.980392%);stroke-opacity:1;stroke-miterlimit:10;" d="M 184.003906 249.730469 C 184.003906 252.871094 181.457031 255.417969 178.316406 255.417969 C 175.175781 255.417969 172.628906 252.871094 172.628906 249.730469 C 172.628906 246.589844 175.175781 244.042969 178.316406 244.042969 C 181.457031 244.042969 184.003906 246.589844 184.003906 249.730469 "/>
<path style="fill:none;stroke-width:0.708661;stroke-linecap:round;stroke-linejoin:round;stroke:rgb(18.431373%,30.980392%,30.980392%);stroke-opacity:1;stroke-miterlimit:10;" d="M 191.054688 226.140625 C 191.054688 229.28125 188.507812 231.828125 185.367188 231.828125 C 182.222656 231.828125 179.675781 229.28125 179.675781 226.140625 C 179.675781 222.996094 182.222656 220.449219 185.367188 220.449219 C 188.507812 220.449219 191.054688 222.996094 191.054688 226.140625 "/>
<path style="fill-rule:nonzero;fill:rgb(18.431373%,30.980392%,30.980392%);fill-opacity:1;stroke-width:0.708661;stroke-linecap:round;stroke-linejoin:round;stroke:rgb(18.431373%,30.980392%,30.980392%);stroke-opacity:1;stroke-miterlimit:10;" d="M 198.105469 129.160156 C 198.105469 132.300781 195.558594 134.847656 192.414062 134.847656 C 189.273438 134.847656 186.726562 132.300781 186.726562 129.160156 C 186.726562 126.019531 189.273438 123.472656 192.414062 123.472656 C 195.558594 123.472656 198.105469 126.019531 198.105469 129.160156 "/>
<path style="fill:none;stroke-width:0.708661;stroke-linecap:round;stroke-linejoin:round;stroke:rgb(18.431373%,30.980392%,30.980392%);stroke-opacity:1;stroke-miterlimit:10;" d="M 205.152344 237.773438 C 205.152344 240.914062 202.605469 243.460938 199.464844 243.460938 C 196.320312 243.460938 193.773438 240.914062 193.773438 237.773438 C 193.773438 234.628906 196.320312 232.082031 199.464844 232.082031 C 202.605469 232.082031 205.152344 234.628906 205.152344 237.773438 "/>
<path style="fill:none;stroke-width:0.708661;stroke-linecap:round;stroke-linejoin:round;stroke:rgb(18.431373%,30.980392%,30.980392%);stroke-opacity:1;stroke-miterlimit:10;" d="M 212.203125 269.929688 C 212.203125 273.070312 209.65625 275.617188 206.511719 275.617188 C 203.371094 275.617188 200.824219 273.070312 200.824219 269.929688 C 200.824219 266.785156 203.371094 264.238281 206.511719 264.238281 C 209.65625 264.238281 212.203125 266.785156 212.203125 269.929688 "/>
<path style="fill:none;stroke-width:0.708661;stroke-linecap:round;stroke-linejoin:round;stroke:rgb(18.431373%,30.980392%,30.980392%);stroke-opacity:1;stroke-miterlimit:10;" d="M 219.25 333.136719 C 219.25 336.28125 216.703125 338.828125 213.5625 338.828125 C 210.421875 338.828125 207.875 336.28125 207.875 333.136719 C 207.875 329.996094 210.421875 327.449219 213.5625 327.449219 C 216.703125 327.449219 219.25 329.996094 219.25 333.136719 "/>
<path style="fill:none;stroke-width:0.708661;stroke-linecap:round;stroke-linejoin:round;stroke:rgb(18.431373%,30.980392%,30.980392%);stroke-opacity:1;stroke-miterlimit:10;" d="M 226.300781 425.859375 C 226.300781 429 223.753906 431.546875 220.613281 431.546875 C 217.46875 431.546875 214.921875 429 214.921875 425.859375 C 214.921875 422.71875 217.46875 420.167969 220.613281 420.167969 C 223.753906 420.167969 226.300781 422.71875 226.300781 425.859375 "/>
<path style="fill:none;stroke-width:0.708661;stroke-linecap:round;stroke-linejoin:round;stroke:rgb(18.431373%,30.980392%,30.980392%);stroke-opacity:1;stroke-miterlimit:10;" d="M 233.351562 146.996094 C 233.351562 150.136719 230.804688 152.683594 227.660156 152.683594 C 224.519531 152.683594 221.972656 150.136719 221.972656 146.996094 C 221.972656 143.851562 224.519531 141.304688 227.660156 141.304688 C 230.804688 141.304688 233.351562 143.851562 233.351562 146.996094 "/>
<path style="fill:none;stroke-width:0.708661;stroke-linecap:round;stroke-linejoin:round;stroke:rgb(18.431373%,30.980392%,30.980392%);stroke-opacity:1;stroke-miterlimit:10;" d="M 240.398438 316.960938 C 240.398438 320.101562 237.851562 322.648438 234.710938 322.648438 C 231.566406 322.648438 229.019531 320.101562 229.019531 316.960938 C 229.019531 313.820312 231.566406 311.273438 234.710938 311.273438 C 237.851562 311.273438 240.398438 313.820312 240.398438 316.960938 "/>
<path style="fill:none;stroke-width:0.708661;stroke-linecap:round;stroke-linejoin:round;stroke:rgb(18.431373%,30.980392%,30.980392%);stroke-opacity:1;stroke-miterlimit:10;" d="M 247.449219 217.164062 C 247.449219 220.304688 244.902344 222.851562 241.757812 222.851562 C 238.617188 222.851562 236.070312 220.304688 236.070312 217.164062 C 236.070312 214.023438 238.617188 211.476562 241.757812 211.476562 C 244.902344 211.476562 247.449219 214.023438 247.449219 217.164062 "/>
<path style="fill:none;stroke-width:0.708661;stroke-linecap:round;stroke-linejoin:round;stroke:rgb(18.431373%,30.980392%,30.980392%);stroke-opacity:1;stroke-miterlimit:10;" d="M 254.496094 185.863281 C 254.496094 189.003906 251.949219 191.550781 248.808594 191.550781 C 245.667969 191.550781 243.121094 189.003906 243.121094 185.863281 C 243.121094 182.722656 245.667969 180.171875 248.808594 180.171875 C 251.949219 180.171875 254.496094 182.722656 254.496094 185.863281 "/>
<path style="fill:none;stroke-width:0.708661;stroke-linecap:round;stroke-linejoin:round;stroke:rgb(18.431373%,30.980392%,30.980392%);stroke-opacity:1;stroke-miterlimit:10;" d="M 261.546875 168.257812 C 261.546875 171.398438 259 173.945312 255.859375 173.945312 C 252.714844 173.945312 250.167969 171.398438 250.167969 168.257812 C 250.167969 165.117188 252.714844 162.570312 255.859375 162.570312 C 259 162.570312 261.546875 165.117188 261.546875 168.257812 "/>
<path style="fill-rule:nonzero;fill:rgb(18.431373%,30.980392%,30.980392%);fill-opacity:1;stroke-width:0.708661;stroke-linecap:round;stroke-linejoin:round;stroke:rgb(18.431373%,30.980392%,30.980392%);stroke-opacity:1;stroke-miterlimit:10;" d="M 268.597656 340.925781 C 268.597656 344.070312 266.050781 346.617188 262.90625 346.617188 C 259.765625 346.617188 257.21875 344.070312 257.21875 340.925781 C 257.21875 337.785156 259.765625 335.238281 262.90625 335.238281 C 266.050781 335.238281 268.597656 337.785156 268.597656 340.925781 "/>
<path style="fill-rule:nonzero;fill:rgb(18.431373%,30.980392%,30.980392%);fill-opacity:1;stroke-width:0.708661;stroke-linecap:round;stroke-linejoin:round;stroke:rgb(18.431373%,30.980392%,30.980392%);stroke-opacity:1;stroke-miterlimit:10;" d="M 275.644531 72.203125 C 275.644531 75.34375 273.097656 77.890625 269.957031 77.890625 C 266.8125 77.890625 264.265625 75.34375 264.265625 72.203125 C 264.265625 69.058594 266.8125 66.511719 269.957031 66.511719 C 273.097656 66.511719 275.644531 69.058594 275.644531 72.203125 "/>
<path style="fill:none;stroke-width:0.708661;stroke-linecap:round;stroke-linejoin:round;stroke:rgb(18.431373%,30.980392%,30.980392%);stroke-opacity:1;stroke-miterlimit:10;" d="M 282.695312 71.191406 C 282.695312 74.335938 280.148438 76.882812 277.003906 76.882812 C 273.863281 76.882812 271.316406 74.335938 271.316406 71.191406 C 271.316406 68.050781 273.863281 65.503906 277.003906 65.503906 C 280.148438 65.503906 282.695312 68.050781 282.695312 71.191406 "/>
<path style="fill:none;stroke-width:0.708661;stroke-linecap:round;stroke-linejoin:round;stroke:rgb(18.431373%,30.980392%,30.980392%);stroke-opacity:1;stroke-miterlimit:10;" d="M 289.742188 121.671875 C 289.742188 124.816406 287.195312 127.363281 284.054688 127.363281 C 280.914062 127.363281 278.367188 124.816406 278.367188 121.671875 C 278.367188 118.53125 280.914062 115.984375 284.054688 115.984375 C 287.195312 115.984375 289.742188 118.53125 289.742188 121.671875 "/>
<path style="fill:none;stroke-width:0.708661;stroke-linecap:round;stroke-linejoin:round;stroke:rgb(18.431373%,30.980392%,30.980392%);stroke-opacity:1;stroke-miterlimit:10;" d="M 296.792969 190.3125 C 296.792969 193.457031 294.246094 196.003906 291.105469 196.003906 C 287.960938 196.003906 285.414062 193.457031 285.414062 190.3125 C 285.414062 187.171875 287.960938 184.625 291.105469 184.625 C 294.246094 184.625 296.792969 187.171875 296.792969 190.3125 "/>
<path style="fill-rule:nonzero;fill:rgb(18.431373%,30.980392%,30.980392%);fill-opacity:1;stroke-width:0.708661;stroke-linecap:round;stroke-linejoin:round;stroke:rgb(18.431373%,30.980392%,30.980392%);stroke-opacity:1;stroke-miterlimit:10;" d="M 303.84375 247.855469 C 303.84375 250.996094 301.296875 253.542969 298.152344 253.542969 C 295.011719 253.542969 292.464844 250.996094 292.464844 247.855469 C 292.464844 244.714844 295.011719 242.167969 298.152344 242.167969 C 301.296875 242.167969 303.84375 244.714844 303.84375 247.855469 "/>
<path style="fill:none;stroke-width:0.708661;stroke-linecap:round;stroke-linejoin:round;stroke:rgb(18.431373%,30.980392%,30.980392%);stroke-opacity:1;stroke-miterlimit:10;" d="M 310.890625 189.507812 C 310.890625 192.652344 308.34375 195.199219 305.203125 195.199219 C 302.058594 195.199219 299.511719 192.652344 299.511719 189.507812 C 299.511719 186.367188 302.058594 183.820312 305.203125 183.820312 C 308.34375 183.820312 310.890625 186.367188 310.890625 189.507812 "/>
<path style="fill:none;stroke-width:0.708661;stroke-linecap:round;stroke-linejoin:round;stroke:rgb(18.431373%,30.980392%,30.980392%);stroke-opacity:1;stroke-miterlimit:10;" d="M 317.941406 168.972656 C 317.941406 172.113281 315.394531 174.660156 312.25 174.660156 C 309.109375 174.660156 306.5625 172.113281 306.5625 168.972656 C 306.5625 165.828125 309.109375 163.28125 312.25 163.28125 C 315.394531 163.28125 317.941406 165.828125 317.941406 168.972656 "/>
<path style="fill:none;stroke-width:0.708661;stroke-linecap:round;stroke-linejoin:round;stroke:rgb(18.431373%,30.980392%,30.980392%);stroke-opacity:1;stroke-miterlimit:10;" d="M 324.988281 139.132812 C 324.988281 142.273438 322.441406 144.820312 319.300781 144.820312 C 316.160156 144.820312 313.613281 142.273438 313.613281 139.132812 C 313.613281 135.988281 316.160156 133.441406 319.300781 133.441406 C 322.441406 133.441406 324.988281 135.988281 324.988281 139.132812 "/>
<path style="fill:none;stroke-width:0.708661;stroke-linecap:round;stroke-linejoin:round;stroke:rgb(18.431373%,30.980392%,30.980392%);stroke-opacity:1;stroke-miterlimit:10;" d="M 332.039062 289.390625 C 332.039062 292.53125 329.492188 295.078125 326.351562 295.078125 C 323.207031 295.078125 320.660156 292.53125 320.660156 289.390625 C 320.660156 286.25 323.207031 283.703125 326.351562 283.703125 C 329.492188 283.703125 332.039062 286.25 332.039062 289.390625 "/>
<path style="fill-rule:nonzero;fill:rgb(18.431373%,30.980392%,30.980392%);fill-opacity:1;stroke-width:0.708661;stroke-linecap:round;stroke-linejoin:round;stroke:rgb(18.431373%,30.980392%,30.980392%);stroke-opacity:1;stroke-miterlimit:10;" d="M 339.089844 282.9375 C 339.089844 286.078125 336.542969 288.625 333.398438 288.625 C 330.257812 288.625 327.710938 286.078125 327.710938 282.9375 C 327.710938 279.792969 330.257812 277.246094 333.398438 277.246094 C 336.542969 277.246094 339.089844 279.792969 339.089844 282.9375 "/>
<path style="fill-rule:nonzero;fill:rgb(18.431373%,30.980392%,30.980392%);fill-opacity:1;stroke-width:0.708661;stroke-linecap:round;stroke-linejoin:round;stroke:rgb(18.431373%,30.980392%,30.980392%);stroke-opacity:1;stroke-miterlimit:10;" d="M 346.136719 270.144531 C 346.136719 273.285156 343.589844 275.832031 340.449219 275.832031 C 337.304688 275.832031 334.757812 273.285156 334.757812 270.144531 C 334.757812 267 337.304688 264.453125 340.449219 264.453125 C 343.589844 264.453125 346.136719 267 346.136719 270.144531 "/>
<path style="fill:none;stroke-width:0.708661;stroke-linecap:round;stroke-linejoin:round;stroke:rgb(18.431373%,30.980392%,30.980392%);stroke-opacity:1;stroke-miterlimit:10;" d="M 353.1875 349.3125 C 353.1875 352.453125 350.640625 355 347.496094 355 C 344.355469 355 341.808594 352.453125 341.808594 349.3125 C 341.808594 346.171875 344.355469 343.625 347.496094 343.625 C 350.640625 343.625 353.1875 346.171875 353.1875 349.3125 "/>
<path style="fill:none;stroke-width:0.708661;stroke-linecap:round;stroke-linejoin:round;stroke:rgb(18.431373%,30.980392%,30.980392%);stroke-opacity:1;stroke-miterlimit:10;" d="M 360.234375 198.214844 C 360.234375 201.359375 357.6875 203.90625 354.546875 203.90625 C 351.40625 203.90625 348.859375 201.359375 348.859375 198.214844 C 348.859375 195.074219 351.40625 192.527344 354.546875 192.527344 C 357.6875 192.527344 360.234375 195.074219 360.234375 198.214844 "/>
<path style="fill:none;stroke-width:0.708661;stroke-linecap:round;stroke-linejoin:round;stroke:rgb(18.431373%,30.980392%,30.980392%);stroke-opacity:1;stroke-miterlimit:10;" d="M 367.285156 193.167969 C 367.285156 196.308594 364.738281 198.855469 361.597656 198.855469 C 358.453125 198.855469 355.90625 196.308594 355.90625 193.167969 C 355.90625 190.023438 358.453125 187.476562 361.597656 187.476562 C 364.738281 187.476562 367.285156 190.023438 367.285156 193.167969 "/>
<path style="fill:none;stroke-width:0.708661;stroke-linecap:round;stroke-linejoin:round;stroke:rgb(18.431373%,30.980392%,30.980392%);stroke-opacity:1;stroke-miterlimit:10;" d="M 374.335938 95 C 374.335938 98.144531 371.789062 100.691406 368.644531 100.691406 C 365.503906 100.691406 362.957031 98.144531 362.957031 95 C 362.957031 91.859375 365.503906 89.3125 368.644531 89.3125 C 371.789062 89.3125 374.335938 91.859375 374.335938 95 "/>
<path style="fill:none;stroke-width:0.708661;stroke-linecap:round;stroke-linejoin:round;stroke:rgb(18.431373%,30.980392%,30.980392%);stroke-opacity:1;stroke-miterlimit:10;" d="M 381.382812 302.066406 C 381.382812 305.207031 378.835938 307.757812 375.695312 307.757812 C 372.550781 307.757812 370.003906 305.207031 370.003906 302.066406 C 370.003906 298.925781 372.550781 296.378906 375.695312 296.378906 C 378.835938 296.378906 381.382812 298.925781 381.382812 302.066406 "/>
<path style="fill:none;stroke-width:0.708661;stroke-linecap:round;stroke-linejoin:round;stroke:rgb(18.431373%,30.980392%,30.980392%);stroke-opacity:1;stroke-miterlimit:10;" d="M 388.433594 351.476562 C 388.433594 354.617188 385.886719 357.164062 382.742188 357.164062 C 379.601562 357.164062 377.054688 354.617188 377.054688 351.476562 C 377.054688 348.332031 379.601562 345.785156 382.742188 345.785156 C 385.886719 345.785156 388.433594 348.332031 388.433594 351.476562 "/>
<path style="fill:none;stroke-width:0.708661;stroke-linecap:round;stroke-linejoin:round;stroke:rgb(18.431373%,30.980392%,30.980392%);stroke-opacity:1;stroke-miterlimit:10;" d="M 395.480469 144.136719 C 395.480469 147.277344 392.933594 149.824219 389.792969 149.824219 C 386.652344 149.824219 384.105469 147.277344 384.105469 144.136719 C 384.105469 140.996094 386.652344 138.445312 389.792969 138.445312 C 392.933594 138.445312 395.480469 140.996094 395.480469 144.136719 "/>
<path style="fill-rule:nonzero;fill:rgb(18.431373%,30.980392%,30.980392%);fill-opacity:1;stroke-width:0.708661;stroke-linecap:round;stroke-linejoin:round;stroke:rgb(18.431373%,30.980392%,30.980392%);stroke-opacity:1;stroke-miterlimit:10;" d="M 402.53125 194.164062 C 402.53125 197.308594 399.984375 199.855469 396.84375 199.855469 C 393.699219 199.855469 391.152344 197.308594 391.152344 194.164062 C 391.152344 191.023438 393.699219 188.476562 396.84375 188.476562 C 399.984375 188.476562 402.53125 191.023438 402.53125 194.164062 "/>
<path style="fill-rule:nonzero;fill:rgb(18.431373%,30.980392%,30.980392%);fill-opacity:1;stroke-width:0.708661;stroke-linecap:round;stroke-linejoin:round;stroke:rgb(18.431373%,30.980392%,30.980392%);stroke-opacity:1;stroke-miterlimit:10;" d="M 409.582031 308.429688 C 409.582031 311.570312 407.035156 314.117188 403.890625 314.117188 C 400.75 314.117188 398.203125 311.570312 398.203125 308.429688 C 398.203125 305.285156 400.75 302.738281 403.890625 302.738281 C 407.035156 302.738281 409.582031 305.285156 409.582031 308.429688 "/>
<path style="fill:none;stroke-width:0.708661;stroke-linecap:round;stroke-linejoin:round;stroke:rgb(18.431373%,30.980392%,30.980392%);stroke-opacity:1;stroke-miterlimit:10;" d="M 416.628906 205.050781 C 416.628906 208.195312 414.082031 210.742188 410.941406 210.742188 C 407.796875 210.742188 405.25 208.195312 405.25 205.050781 C 405.25 201.910156 407.796875 199.363281 410.941406 199.363281 C 414.082031 199.363281 416.628906 201.910156 416.628906 205.050781 "/>
<path style="fill:none;stroke-width:0.708661;stroke-linecap:round;stroke-linejoin:round;stroke:rgb(18.431373%,30.980392%,30.980392%);stroke-opacity:1;stroke-miterlimit:10;" d="M 423.679688 153.023438 C 423.679688 156.164062 421.132812 158.710938 417.988281 158.710938 C 414.847656 158.710938 412.300781 156.164062 412.300781 153.023438 C 412.300781 149.882812 414.847656 147.335938 417.988281 147.335938 C 421.132812 147.335938 423.679688 149.882812 423.679688 153.023438 "/>
<path style="fill:none;stroke-width:0.708661;stroke-linecap:round;stroke-linejoin:round;stroke:rgb(18.431373%,30.980392%,30.980392%);stroke-opacity:1;stroke-miterlimit:10;" d="M 430.726562 302.171875 C 430.726562 305.3125 428.179688 307.859375 425.039062 307.859375 C 421.898438 307.859375 419.351562 305.3125 419.351562 302.171875 C 419.351562 299.027344 421.898438 296.480469 425.039062 296.480469 C 428.179688 296.480469 430.726562 299.027344 430.726562 302.171875 "/>
<path style="fill:none;stroke-width:0.708661;stroke-linecap:round;stroke-linejoin:round;stroke:rgb(18.431373%,30.980392%,30.980392%);stroke-opacity:1;stroke-miterlimit:10;" d="M 437.777344 111.910156 C 437.777344 115.050781 435.230469 117.597656 432.089844 117.597656 C 428.945312 117.597656 426.398438 115.050781 426.398438 111.910156 C 426.398438 108.769531 428.945312 106.21875 432.089844 106.21875 C 435.230469 106.21875 437.777344 108.769531 437.777344 111.910156 "/>
<path style="fill:none;stroke-width:0.708661;stroke-linecap:round;stroke-linejoin:round;stroke:rgb(18.431373%,30.980392%,30.980392%);stroke-opacity:1;stroke-miterlimit:10;" d="M 444.828125 220.230469 C 444.828125 223.375 442.28125 225.921875 439.136719 225.921875 C 435.996094 225.921875 433.449219 223.375 433.449219 220.230469 C 433.449219 217.089844 435.996094 214.542969 439.136719 214.542969 C 442.28125 214.542969 444.828125 217.089844 444.828125 220.230469 "/>
<path style="fill-rule:nonzero;fill:rgb(18.431373%,30.980392%,30.980392%);fill-opacity:1;stroke-width:0.708661;stroke-linecap:round;stroke-linejoin:round;stroke:rgb(18.431373%,30.980392%,30.980392%);stroke-opacity:1;stroke-miterlimit:10;" d="M 451.875 480.816406 C 451.875 483.960938 449.328125 486.507812 446.1875 486.507812 C 443.042969 486.507812 440.496094 483.960938 440.496094 480.816406 C 440.496094 477.675781 443.042969 475.128906 446.1875 475.128906 C 449.328125 475.128906 451.875 477.675781 451.875 480.816406 "/>
<path style="fill:none;stroke-width:0.708661;stroke-linecap:round;stroke-linejoin:round;stroke:rgb(18.431373%,30.980392%,30.980392%);stroke-opacity:1;stroke-miterlimit:10;" d="M 458.925781 458.402344 C 458.925781 461.542969 456.378906 464.089844 453.234375 464.089844 C 450.09375 464.089844 447.546875 461.542969 447.546875 458.402344 C 447.546875 455.257812 450.09375 452.710938 453.234375 452.710938 C 456.378906 452.710938 458.925781 455.257812 458.925781 458.402344 "/>
<path style="fill-rule:nonzero;fill:rgb(18.431373%,30.980392%,30.980392%);fill-opacity:1;stroke-width:0.708661;stroke-linecap:round;stroke-linejoin:round;stroke:rgb(18.431373%,30.980392%,30.980392%);stroke-opacity:1;stroke-miterlimit:10;" d="M 465.972656 213.546875 C 465.972656 216.6875 463.425781 219.234375 460.285156 219.234375 C 457.144531 219.234375 454.597656 216.6875 454.597656 213.546875 C 454.597656 210.402344 457.144531 207.855469 460.285156 207.855469 C 463.425781 207.855469 465.972656 210.402344 465.972656 213.546875 "/>
<path style="fill:none;stroke-width:0.708661;stroke-linecap:round;stroke-linejoin:round;stroke:rgb(18.431373%,30.980392%,30.980392%);stroke-opacity:1;stroke-miterlimit:10;" d="M 473.023438 312.066406 C 473.023438 315.207031 470.476562 317.753906 467.335938 317.753906 C 464.191406 317.753906 461.644531 315.207031 461.644531 312.066406 C 461.644531 308.925781 464.191406 306.378906 467.335938 306.378906 C 470.476562 306.378906 473.023438 308.925781 473.023438 312.066406 "/>
<path style="fill:none;stroke-width:0.708661;stroke-linecap:round;stroke-linejoin:round;stroke:rgb(18.431373%,30.980392%,30.980392%);stroke-opacity:1;stroke-miterlimit:10;" d="M 480.074219 283.8125 C 480.074219 286.957031 477.527344 289.503906 474.382812 289.503906 C 471.242188 289.503906 468.695312 286.957031 468.695312 283.8125 C 468.695312 280.671875 471.242188 278.125 474.382812 278.125 C 477.527344 278.125 480.074219 280.671875 480.074219 283.8125 "/>
<path style="fill:none;stroke-width:0.708661;stroke-linecap:round;stroke-linejoin:round;stroke:rgb(18.431373%,30.980392%,30.980392%);stroke-opacity:1;stroke-miterlimit:10;" d="M 487.121094 233.152344 C 487.121094 236.296875 484.574219 238.84375 481.433594 238.84375 C 478.289062 238.84375 475.742188 236.296875 475.742188 233.152344 C 475.742188 230.011719 478.289062 227.464844 481.433594 227.464844 C 484.574219 227.464844 487.121094 230.011719 487.121094 233.152344 "/>
<path style="fill:none;stroke-width:0.708661;stroke-linecap:round;stroke-linejoin:round;stroke:rgb(18.431373%,30.980392%,30.980392%);stroke-opacity:1;stroke-miterlimit:10;" d="M 494.171875 257.199219 C 494.171875 260.339844 491.625 262.890625 488.480469 262.890625 C 485.339844 262.890625 482.792969 260.339844 482.792969 257.199219 C 482.792969 254.058594 485.339844 251.511719 488.480469 251.511719 C 491.625 251.511719 494.171875 254.058594 494.171875 257.199219 "/>
<path style="fill-rule:nonzero;fill:rgb(18.431373%,30.980392%,30.980392%);fill-opacity:1;stroke-width:0.708661;stroke-linecap:round;stroke-linejoin:round;stroke:rgb(18.431373%,30.980392%,30.980392%);stroke-opacity:1;stroke-miterlimit:10;" d="M 501.21875 319.035156 C 501.21875 322.175781 498.671875 324.722656 495.53125 324.722656 C 492.390625 324.722656 489.84375 322.175781 489.84375 319.035156 C 489.84375 315.890625 492.390625 313.34375 495.53125 313.34375 C 498.671875 313.34375 501.21875 315.890625 501.21875 319.035156 "/>
<path style="fill:none;stroke-width:0.708661;stroke-linecap:round;stroke-linejoin:round;stroke:rgb(18.431373%,30.980392%,30.980392%);stroke-opacity:1;stroke-miterlimit:10;" d="M 508.269531 346.023438 C 508.269531 349.164062 505.722656 351.710938 502.582031 351.710938 C 499.4375 351.710938 496.890625 349.164062 496.890625 346.023438 C 496.890625 342.878906 499.4375 340.332031 502.582031 340.332031 C 505.722656 340.332031 508.269531 342.878906 508.269531 346.023438 "/>
<path style="fill:none;stroke-width:0.708661;stroke-linecap:round;stroke-linejoin:round;stroke:rgb(18.431373%,30.980392%,30.980392%);stroke-opacity:1;stroke-miterlimit:10;" d="M 515.320312 277.246094 C 515.320312 280.386719 512.773438 282.933594 509.628906 282.933594 C 506.488281 282.933594 503.941406 280.386719 503.941406 277.246094 C 503.941406 274.101562 506.488281 271.554688 509.628906 271.554688 C 512.773438 271.554688 515.320312 274.101562 515.320312 277.246094 "/>
<path style="fill:none;stroke-width:0.708661;stroke-linecap:round;stroke-linejoin:round;stroke:rgb(18.431373%,30.980392%,30.980392%);stroke-opacity:1;stroke-miterlimit:10;" d="M 522.367188 76.265625 C 522.367188 79.40625 519.820312 81.953125 516.679688 81.953125 C 513.535156 81.953125 510.988281 79.40625 510.988281 76.265625 C 510.988281 73.125 513.535156 70.578125 516.679688 70.578125 C 519.820312 70.578125 522.367188 73.125 522.367188 76.265625 "/>
<path style="fill:none;stroke-width:0.708661;stroke-linecap:round;stroke-linejoin:round;stroke:rgb(18.431373%,30.980392%,30.980392%);stroke-opacity:1;stroke-miterlimit:10;" d="M 529.417969 116.785156 C 529.417969 119.925781 526.871094 122.472656 523.726562 122.472656 C 520.585938 122.472656 518.039062 119.925781 518.039062 116.785156 C 518.039062 113.640625 520.585938 111.09375 523.726562 111.09375 C 526.871094 111.09375 529.417969 113.640625 529.417969 116.785156 "/>
<path style="fill:none;stroke-width:0.708661;stroke-linecap:round;stroke-linejoin:round;stroke:rgb(18.431373%,30.980392%,30.980392%);stroke-opacity:1;stroke-miterlimit:10;" d="M 536.464844 251.496094 C 536.464844 254.636719 533.917969 257.183594 530.777344 257.183594 C 527.636719 257.183594 525.089844 254.636719 525.089844 251.496094 C 525.089844 248.355469 527.636719 245.804688 530.777344 245.804688 C 533.917969 245.804688 536.464844 248.355469 536.464844 251.496094 "/>
<path style="fill-rule:nonzero;fill:rgb(18.431373%,30.980392%,30.980392%);fill-opacity:1;stroke-width:0.708661;stroke-linecap:round;stroke-linejoin:round;stroke:rgb(18.431373%,30.980392%,30.980392%);stroke-opacity:1;stroke-miterlimit:10;" d="M 543.515625 278.109375 C 543.515625 281.253906 540.96875 283.800781 537.828125 283.800781 C 534.683594 283.800781 532.136719 281.253906 532.136719 278.109375 C 532.136719 274.96875 534.683594 272.421875 537.828125 272.421875 C 540.96875 272.421875 543.515625 274.96875 543.515625 278.109375 "/>
<path style="fill:none;stroke-width:0.708661;stroke-linecap:round;stroke-linejoin:round;stroke:rgb(18.431373%,30.980392%,30.980392%);stroke-opacity:1;stroke-miterlimit:10;" d="M 550.566406 431.90625 C 550.566406 435.046875 548.019531 437.59375 544.875 437.59375 C 541.734375 437.59375 539.1875 435.046875 539.1875 431.90625 C 539.1875 428.761719 541.734375 426.214844 544.875 426.214844 C 548.019531 426.214844 550.566406 428.761719 550.566406 431.90625 "/>
<path style="fill-rule:nonzero;fill:rgb(18.431373%,30.980392%,30.980392%);fill-opacity:1;stroke-width:0.708661;stroke-linecap:round;stroke-linejoin:round;stroke:rgb(18.431373%,30.980392%,30.980392%);stroke-opacity:1;stroke-miterlimit:10;" d="M 557.613281 269.871094 C 557.613281 273.011719 555.066406 275.558594 551.925781 275.558594 C 548.78125 275.558594 546.234375 273.011719 546.234375 269.871094 C 546.234375 266.730469 548.78125 264.183594 551.925781 264.183594 C 555.066406 264.183594 557.613281 266.730469 557.613281 269.871094 "/>
<path style="fill-rule:nonzero;fill:rgb(18.431373%,30.980392%,30.980392%);fill-opacity:1;stroke-width:0.708661;stroke-linecap:round;stroke-linejoin:round;stroke:rgb(18.431373%,30.980392%,30.980392%);stroke-opacity:1;stroke-miterlimit:10;" d="M 564.664062 193.589844 C 564.664062 196.734375 562.117188 199.28125 558.972656 199.28125 C 555.832031 199.28125 553.285156 196.734375 553.285156 193.589844 C 553.285156 190.449219 555.832031 187.902344 558.972656 187.902344 C 562.117188 187.902344 564.664062 190.449219 564.664062 193.589844 "/>
<path style="fill:none;stroke-width:0.708661;stroke-linecap:round;stroke-linejoin:round;stroke:rgb(18.431373%,30.980392%,30.980392%);stroke-opacity:1;stroke-miterlimit:10;" d="M 571.710938 375.382812 C 571.710938 378.527344 569.164062 381.074219 566.023438 381.074219 C 562.882812 381.074219 560.335938 378.527344 560.335938 375.382812 C 560.335938 372.242188 562.882812 369.695312 566.023438 369.695312 C 569.164062 369.695312 571.710938 372.242188 571.710938 375.382812 "/>
<path style="fill:none;stroke-width:0.708661;stroke-linecap:round;stroke-linejoin:round;stroke:rgb(18.431373%,30.980392%,30.980392%);stroke-opacity:1;stroke-miterlimit:10;" d="M 578.761719 176.65625 C 578.761719 179.796875 576.214844 182.347656 573.074219 182.347656 C 569.929688 182.347656 567.382812 179.796875 567.382812 176.65625 C 567.382812 173.515625 569.929688 170.96875 573.074219 170.96875 C 576.214844 170.96875 578.761719 173.515625 578.761719 176.65625 "/>
<path style="fill-rule:nonzero;fill:rgb(18.431373%,30.980392%,30.980392%);fill-opacity:1;stroke-width:0.708661;stroke-linecap:round;stroke-linejoin:round;stroke:rgb(18.431373%,30.980392%,30.980392%);stroke-opacity:1;stroke-miterlimit:10;" d="M 585.8125 170.851562 C 585.8125 173.992188 583.265625 176.542969 580.121094 176.542969 C 576.980469 176.542969 574.433594 173.992188 574.433594 170.851562 C 574.433594 167.710938 576.980469 165.164062 580.121094 165.164062 C 583.265625 165.164062 585.8125 167.710938 585.8125 170.851562 "/>
<path style="fill-rule:nonzero;fill:rgb(18.431373%,30.980392%,30.980392%);fill-opacity:1;stroke-width:0.708661;stroke-linecap:round;stroke-linejoin:round;stroke:rgb(18.431373%,30.980392%,30.980392%);stroke-opacity:1;stroke-miterlimit:10;" d="M 592.859375 369.4375 C 592.859375 372.578125 590.3125 375.125 587.171875 375.125 C 584.027344 375.125 581.480469 372.578125 581.480469 369.4375 C 581.480469 366.296875 584.027344 363.746094 587.171875 363.746094 C 590.3125 363.746094 592.859375 366.296875 592.859375 369.4375 "/>
<path style="fill:none;stroke-width:0.708661;stroke-linecap:round;stroke-linejoin:round;stroke:rgb(18.431373%,30.980392%,30.980392%);stroke-opacity:1;stroke-miterlimit:10;" d="M 599.910156 149.121094 C 599.910156 152.265625 597.363281 154.8125 594.21875 154.8125 C 591.078125 154.8125 588.53125 152.265625 588.53125 149.121094 C 588.53125 145.980469 591.078125 143.433594 594.21875 143.433594 C 597.363281 143.433594 599.910156 145.980469 599.910156 149.121094 "/>
<path style="fill:none;stroke-width:0.708661;stroke-linecap:round;stroke-linejoin:round;stroke:rgb(18.431373%,30.980392%,30.980392%);stroke-opacity:1;stroke-miterlimit:10;" d="M 606.957031 290.082031 C 606.957031 293.222656 604.410156 295.769531 601.269531 295.769531 C 598.128906 295.769531 595.582031 293.222656 595.582031 290.082031 C 595.582031 286.9375 598.128906 284.390625 601.269531 284.390625 C 604.410156 284.390625 606.957031 286.9375 606.957031 290.082031 "/>
<path style="fill:none;stroke-width:0.708661;stroke-linecap:round;stroke-linejoin:round;stroke:rgb(18.431373%,30.980392%,30.980392%);stroke-opacity:1;stroke-miterlimit:10;" d="M 614.007812 305.488281 C 614.007812 308.628906 611.460938 311.175781 608.320312 311.175781 C 605.175781 311.175781 602.628906 308.628906 602.628906 305.488281 C 602.628906 302.34375 605.175781 299.796875 608.320312 299.796875 C 611.460938 299.796875 614.007812 302.34375 614.007812 305.488281 "/>
<path style="fill:none;stroke-width:0.708661;stroke-linecap:round;stroke-linejoin:round;stroke:rgb(18.431373%,30.980392%,30.980392%);stroke-opacity:1;stroke-miterlimit:10;" d="M 621.058594 170.277344 C 621.058594 173.417969 618.511719 175.964844 615.367188 175.964844 C 612.226562 175.964844 609.679688 173.417969 609.679688 170.277344 C 609.679688 167.132812 612.226562 164.585938 615.367188 164.585938 C 618.511719 164.585938 621.058594 167.132812 621.058594 170.277344 "/>
<path style="fill:none;stroke-width:0.708661;stroke-linecap:round;stroke-linejoin:round;stroke:rgb(18.431373%,30.980392%,30.980392%);stroke-opacity:1;stroke-miterlimit:10;" d="M 628.105469 220.585938 C 628.105469 223.726562 625.558594 226.277344 622.417969 226.277344 C 619.273438 226.277344 616.726562 223.726562 616.726562 220.585938 C 616.726562 217.445312 619.273438 214.898438 622.417969 214.898438 C 625.558594 214.898438 628.105469 217.445312 628.105469 220.585938 "/>
<path style="fill:none;stroke-width:0.708661;stroke-linecap:round;stroke-linejoin:round;stroke:rgb(18.431373%,30.980392%,30.980392%);stroke-opacity:1;stroke-miterlimit:10;" d="M 635.15625 296.179688 C 635.15625 299.324219 632.609375 301.871094 629.464844 301.871094 C 626.324219 301.871094 623.777344 299.324219 623.777344 296.179688 C 623.777344 293.039062 626.324219 290.492188 629.464844 290.492188 C 632.609375 290.492188 635.15625 293.039062 635.15625 296.179688 "/>
<path style="fill:none;stroke-width:0.708661;stroke-linecap:round;stroke-linejoin:round;stroke:rgb(18.431373%,30.980392%,30.980392%);stroke-opacity:1;stroke-miterlimit:10;" d="M 642.203125 377.835938 C 642.203125 380.976562 639.65625 383.523438 636.515625 383.523438 C 633.375 383.523438 630.828125 380.976562 630.828125 377.835938 C 630.828125 374.691406 633.375 372.144531 636.515625 372.144531 C 639.65625 372.144531 642.203125 374.691406 642.203125 377.835938 "/>
<path style="fill:none;stroke-width:0.708661;stroke-linecap:round;stroke-linejoin:round;stroke:rgb(18.431373%,30.980392%,30.980392%);stroke-opacity:1;stroke-miterlimit:10;" d="M 649.253906 164.691406 C 649.253906 167.832031 646.707031 170.378906 643.566406 170.378906 C 640.421875 170.378906 637.875 167.832031 637.875 164.691406 C 637.875 161.546875 640.421875 159 643.566406 159 C 646.707031 159 649.253906 161.546875 649.253906 164.691406 "/>
<path style="fill:none;stroke-width:0.708661;stroke-linecap:round;stroke-linejoin:round;stroke:rgb(18.431373%,30.980392%,30.980392%);stroke-opacity:1;stroke-miterlimit:10;" d="M 656.304688 368.785156 C 656.304688 371.925781 653.757812 374.472656 650.613281 374.472656 C 647.472656 374.472656 644.925781 371.925781 644.925781 368.785156 C 644.925781 365.640625 647.472656 363.09375 650.613281 363.09375 C 653.757812 363.09375 656.304688 365.640625 656.304688 368.785156 "/>
<path style="fill:none;stroke-width:0.708661;stroke-linecap:round;stroke-linejoin:round;stroke:rgb(18.431373%,30.980392%,30.980392%);stroke-opacity:1;stroke-miterlimit:10;" d="M 663.351562 449.054688 C 663.351562 452.195312 660.804688 454.742188 657.664062 454.742188 C 654.519531 454.742188 651.972656 452.195312 651.972656 449.054688 C 651.972656 445.910156 654.519531 443.363281 657.664062 443.363281 C 660.804688 443.363281 663.351562 445.910156 663.351562 449.054688 "/>
<path style="fill-rule:nonzero;fill:rgb(18.431373%,30.980392%,30.980392%);fill-opacity:1;stroke-width:0.708661;stroke-linecap:round;stroke-linejoin:round;stroke:rgb(18.431373%,30.980392%,30.980392%);stroke-opacity:1;stroke-miterlimit:10;" d="M 670.402344 161.007812 C 670.402344 164.148438 667.855469 166.695312 664.710938 166.695312 C 661.570312 166.695312 659.023438 164.148438 659.023438 161.007812 C 659.023438 157.867188 661.570312 155.320312 664.710938 155.320312 C 667.855469 155.320312 670.402344 157.867188 670.402344 161.007812 "/>
<path style="fill:none;stroke-width:0.708661;stroke-linecap:round;stroke-linejoin:round;stroke:rgb(18.431373%,30.980392%,30.980392%);stroke-opacity:1;stroke-miterlimit:10;" d="M 677.449219 171.230469 C 677.449219 174.375 674.902344 176.921875 671.761719 176.921875 C 668.621094 176.921875 666.074219 174.375 666.074219 171.230469 C 666.074219 168.089844 668.621094 165.542969 671.761719 165.542969 C 674.902344 165.542969 677.449219 168.089844 677.449219 171.230469 "/>
<path style="fill-rule:nonzero;fill:rgb(18.431373%,30.980392%,30.980392%);fill-opacity:1;stroke-width:0.708661;stroke-linecap:round;stroke-linejoin:round;stroke:rgb(18.431373%,30.980392%,30.980392%);stroke-opacity:1;stroke-miterlimit:10;" d="M 684.5 200.980469 C 684.5 204.121094 681.953125 206.667969 678.8125 206.667969 C 675.667969 206.667969 673.121094 204.121094 673.121094 200.980469 C 673.121094 197.835938 675.667969 195.289062 678.8125 195.289062 C 681.953125 195.289062 684.5 197.835938 684.5 200.980469 "/>
<path style="fill-rule:nonzero;fill:rgb(18.431373%,30.980392%,30.980392%);fill-opacity:1;stroke-width:0.708661;stroke-linecap:round;stroke-linejoin:round;stroke:rgb(18.431373%,30.980392%,30.980392%);stroke-opacity:1;stroke-miterlimit:10;" d="M 691.550781 492.222656 C 691.550781 495.363281 689.003906 497.910156 685.859375 497.910156 C 682.71875 497.910156 680.171875 495.363281 680.171875 492.222656 C 680.171875 489.078125 682.71875 486.53125 685.859375 486.53125 C 689.003906 486.53125 691.550781 489.078125 691.550781 492.222656 "/>
<path style="fill:none;stroke-width:0.708661;stroke-linecap:round;stroke-linejoin:round;stroke:rgb(18.431373%,30.980392%,30.980392%);stroke-opacity:1;stroke-miterlimit:10;" d="M 698.597656 285.882812 C 698.597656 289.023438 696.050781 291.570312 692.910156 291.570312 C 689.765625 291.570312 687.21875 289.023438 687.21875 285.882812 C 687.21875 282.738281 689.765625 280.191406 692.910156 280.191406 C 696.050781 280.191406 698.597656 282.738281 698.597656 285.882812 "/>
<path style="fill:none;stroke-width:0.708661;stroke-linecap:round;stroke-linejoin:round;stroke:rgb(18.431373%,30.980392%,30.980392%);stroke-opacity:1;stroke-miterlimit:10;" d="M 705.648438 249.847656 C 705.648438 252.992188 703.101562 255.539062 699.957031 255.539062 C 696.816406 255.539062 694.269531 252.992188 694.269531 249.847656 C 694.269531 246.707031 696.816406 244.160156 699.957031 244.160156 C 703.101562 244.160156 705.648438 246.707031 705.648438 249.847656 "/>
<path style="fill:none;stroke-width:0.708661;stroke-linecap:round;stroke-linejoin:round;stroke:rgb(18.431373%,30.980392%,30.980392%);stroke-opacity:1;stroke-miterlimit:10;" d="M 712.695312 138.28125 C 712.695312 141.421875 710.148438 143.96875 707.007812 143.96875 C 703.867188 143.96875 701.320312 141.421875 701.320312 138.28125 C 701.320312 135.136719 703.867188 132.589844 707.007812 132.589844 C 710.148438 132.589844 712.695312 135.136719 712.695312 138.28125 "/>
<path style="fill:none;stroke-width:0.708661;stroke-linecap:round;stroke-linejoin:round;stroke:rgb(18.431373%,30.980392%,30.980392%);stroke-opacity:1;stroke-miterlimit:10;" d="M 719.746094 227.792969 C 719.746094 230.933594 717.199219 233.480469 714.058594 233.480469 C 710.914062 233.480469 708.367188 230.933594 708.367188 227.792969 C 708.367188 224.648438 710.914062 222.101562 714.058594 222.101562 C 717.199219 222.101562 719.746094 224.648438 719.746094 227.792969 "/>
<path style="fill-rule:nonzero;fill:rgb(18.431373%,30.980392%,30.980392%);fill-opacity:1;stroke-width:0.708661;stroke-linecap:round;stroke-linejoin:round;stroke:rgb(18.431373%,30.980392%,30.980392%);stroke-opacity:1;stroke-miterlimit:10;" d="M 726.796875 386.253906 C 726.796875 389.394531 724.25 391.941406 721.105469 391.941406 C 717.964844 391.941406 715.417969 389.394531 715.417969 386.253906 C 715.417969 383.109375 717.964844 380.5625 721.105469 380.5625 C 724.25 380.5625 726.796875 383.109375 726.796875 386.253906 "/>
<path style="fill:none;stroke-width:4.267913;stroke-linecap:butt;stroke-linejoin:round;stroke:rgb(90.196078%,25.490196%,45.098039%);stroke-opacity:0.501961;stroke-miterlimit:10;" d="M 0 244.34375 L 756 244.34375 "/>
<path style="fill:none;stroke-width:2.133957;stroke-linecap:butt;stroke-linejoin:round;stroke:rgb(18.431373%,30.980392%,30.980392%);stroke-opacity:0.501961;stroke-dasharray:8.535827,8.535827;stroke-miterlimit:10;" d="M 0 240.273438 L 756 240.273438 "/>
<path style="fill:none;stroke-width:2.133957;stroke-linecap:butt;stroke-linejoin:round;stroke:rgb(18.431373%,30.980392%,30.980392%);stroke-opacity:0.501961;stroke-dasharray:8.535827,8.535827;stroke-miterlimit:10;" d="M 0 206.003906 L 756 206.003906 "/>
<path style="fill:none;stroke-width:2.133957;stroke-linecap:butt;stroke-linejoin:round;stroke:rgb(18.431373%,30.980392%,30.980392%);stroke-opacity:1;stroke-dasharray:8.535827,8.535827;stroke-miterlimit:10;" d="M 0 267.59375 L 756 267.59375 "/>
</g>
</svg>
